<svg xmlns="http://www.w3.org/2000/svg" xmlns:xlink="http://www.w3.org/1999/xlink" width="220" zoomAndPan="magnify" viewBox="0 0 165 82.499998" height="110" preserveAspectRatio="xMidYMid meet" version="1.0"><defs><clipPath id="e184edd0be"><path d="M 0.496094 0 L 164.503906 0 L 164.503906 82.003906 L 0.496094 82.003906 Z M 0.496094 0 " clip-rule="nonzero"/></clipPath><clipPath id="73e4351267"><path d="M 5.796875 18.894531 L 159.367188 18.894531 L 159.367188 62.878906 L 5.796875 62.878906 Z M 5.796875 18.894531 " clip-rule="nonzero"/></clipPath></defs><g clip-path="url(#e184edd0be)"><path fill="#ffffff" d="M 0.496094 0 L 164.503906 0 L 164.503906 82.003906 L 0.496094 82.003906 Z M 0.496094 0 " fill-opacity="1" fill-rule="nonzero"/></g><g clip-path="url(#73e4351267)"><path fill="#ffffff" d="M 5.796875 62.777344 L 159.367188 62.777344 L 159.367188 18.996094 L 5.796875 18.996094 Z M 5.796875 62.777344 " fill-opacity="1" fill-rule="nonzero"/></g><path fill="#000000" d="M 90.976562 41.550781 L 88.800781 41.550781 L 88.800781 28.191406 L 96.382812 28.191406 L 96.382812 30.039062 L 90.976562 30.039062 L 90.976562 34.214844 L 96.042969 34.214844 L 96.042969 36.070312 L 90.976562 36.070312 Z M 100.507812 41.550781 L 100.507812 28.191406 L 102.707031 28.191406 L 102.707031 41.550781 Z M 107.945312 41.550781 L 107.945312 28.191406 L 110.140625 28.191406 L 110.140625 39.675781 L 115.832031 39.675781 L 115.832031 41.550781 Z M 119.84375 41.550781 L 119.84375 28.191406 L 122.039062 28.191406 L 122.039062 41.550781 Z M 138.476562 41.550781 L 135.78125 41.550781 L 129.171875 30.90625 L 129.097656 30.90625 L 129.144531 31.5 C 129.230469 32.632812 129.273438 33.667969 129.273438 34.605469 L 129.273438 41.550781 L 127.28125 41.550781 L 127.28125 28.191406 L 129.945312 28.191406 L 136.535156 38.78125 L 136.589844 38.78125 C 136.578125 38.640625 136.554688 38.132812 136.519531 37.257812 C 136.480469 36.375 136.460938 35.683594 136.460938 35.191406 L 136.460938 28.191406 L 138.476562 28.191406 Z M 152.050781 41.550781 L 150.710938 37.839844 L 145.570312 37.839844 L 144.257812 41.550781 L 141.941406 41.550781 L 146.96875 28.136719 L 149.359375 28.136719 L 154.386719 41.550781 Z M 150.128906 35.957031 L 148.871094 32.324219 C 148.78125 32.078125 148.652344 31.695312 148.484375 31.171875 C 148.324219 30.648438 148.214844 30.265625 148.15625 30.019531 C 147.988281 30.769531 147.746094 31.589844 147.429688 32.476562 L 146.214844 35.957031 Z M 150.128906 35.957031 " fill-opacity="1" fill-rule="nonzero"/><path fill="#000000" d="M 91.882812 47.570312 C 91.261719 47.570312 90.773438 47.789062 90.421875 48.222656 C 90.066406 48.660156 89.886719 49.261719 89.886719 50.03125 C 89.886719 50.835938 90.058594 51.441406 90.398438 51.855469 C 90.742188 52.269531 91.234375 52.472656 91.882812 52.472656 C 92.160156 52.472656 92.433594 52.445312 92.691406 52.394531 C 92.953125 52.335938 93.226562 52.265625 93.507812 52.179688 L 93.507812 53.097656 C 92.992188 53.292969 92.40625 53.386719 91.75 53.386719 C 90.785156 53.386719 90.042969 53.097656 89.527344 52.519531 C 89.011719 51.9375 88.75 51.105469 88.75 50.023438 C 88.75 49.339844 88.875 48.746094 89.125 48.234375 C 89.378906 47.722656 89.742188 47.332031 90.21875 47.058594 C 90.691406 46.789062 91.25 46.652344 91.890625 46.652344 C 92.5625 46.652344 93.1875 46.792969 93.757812 47.074219 L 93.371094 47.964844 C 93.148438 47.859375 92.910156 47.769531 92.660156 47.691406 C 92.414062 47.609375 92.15625 47.570312 91.882812 47.570312 Z M 101.617188 50.011719 C 101.617188 51.078125 101.347656 51.910156 100.808594 52.5 C 100.273438 53.09375 99.515625 53.386719 98.53125 53.386719 C 97.539062 53.386719 96.773438 53.09375 96.238281 52.507812 C 95.703125 51.921875 95.4375 51.085938 95.4375 50.003906 C 95.4375 48.921875 95.707031 48.089844 96.242188 47.511719 C 96.78125 46.933594 97.546875 46.640625 98.542969 46.640625 C 99.523438 46.640625 100.277344 46.9375 100.8125 47.523438 C 101.347656 48.113281 101.617188 48.941406 101.617188 50.011719 Z M 96.585938 50.011719 C 96.585938 50.820312 96.746094 51.433594 97.074219 51.851562 C 97.402344 52.265625 97.890625 52.472656 98.53125 52.472656 C 99.171875 52.472656 99.65625 52.269531 99.980469 51.855469 C 100.308594 51.441406 100.472656 50.828125 100.472656 50.011719 C 100.472656 49.210938 100.308594 48.597656 99.984375 48.183594 C 99.664062 47.769531 99.183594 47.5625 98.542969 47.5625 C 97.894531 47.5625 97.40625 47.769531 97.074219 48.183594 C 96.746094 48.597656 96.585938 49.210938 96.585938 50.011719 Z M 109.355469 53.296875 L 108.035156 53.296875 L 104.792969 48.078125 L 104.757812 48.078125 L 104.777344 48.367188 C 104.820312 48.921875 104.84375 49.433594 104.84375 49.890625 L 104.84375 53.296875 L 103.863281 53.296875 L 103.863281 46.746094 L 105.171875 46.746094 L 108.40625 51.941406 L 108.433594 51.941406 C 108.425781 51.871094 108.414062 51.621094 108.394531 51.191406 C 108.378906 50.757812 108.367188 50.421875 108.367188 50.179688 L 108.367188 46.746094 L 109.355469 46.746094 Z M 115.726562 51.519531 C 115.726562 52.101562 115.515625 52.558594 115.09375 52.890625 C 114.667969 53.222656 114.082031 53.386719 113.339844 53.386719 C 112.59375 53.386719 111.980469 53.273438 111.507812 53.042969 L 111.507812 52.03125 C 111.808594 52.171875 112.125 52.28125 112.464844 52.363281 C 112.804688 52.441406 113.117188 52.484375 113.410156 52.484375 C 113.835938 52.484375 114.152344 52.402344 114.351562 52.242188 C 114.558594 52.078125 114.660156 51.863281 114.660156 51.589844 C 114.660156 51.347656 114.566406 51.136719 114.378906 50.96875 C 114.195312 50.796875 113.808594 50.597656 113.226562 50.363281 C 112.625 50.121094 112.199219 49.84375 111.953125 49.535156 C 111.707031 49.222656 111.582031 48.847656 111.582031 48.414062 C 111.582031 47.867188 111.777344 47.4375 112.171875 47.121094 C 112.5625 46.808594 113.085938 46.652344 113.742188 46.652344 C 114.375 46.652344 115.003906 46.789062 115.628906 47.0625 L 115.285156 47.9375 C 114.699219 47.691406 114.175781 47.570312 113.71875 47.570312 C 113.367188 47.570312 113.105469 47.644531 112.921875 47.796875 C 112.742188 47.949219 112.652344 48.148438 112.652344 48.394531 C 112.652344 48.566406 112.6875 48.710938 112.761719 48.835938 C 112.832031 48.953125 112.953125 49.066406 113.117188 49.175781 C 113.28125 49.28125 113.582031 49.425781 114.011719 49.601562 C 114.496094 49.800781 114.847656 49.988281 115.074219 50.160156 C 115.300781 50.335938 115.464844 50.53125 115.570312 50.75 C 115.675781 50.964844 115.726562 51.222656 115.726562 51.519531 Z M 123.007812 46.746094 L 123.007812 50.984375 C 123.007812 51.46875 122.902344 51.894531 122.691406 52.257812 C 122.484375 52.621094 122.179688 52.898438 121.785156 53.097656 C 121.390625 53.292969 120.917969 53.386719 120.367188 53.386719 C 119.550781 53.386719 118.914062 53.171875 118.460938 52.742188 C 118.007812 52.3125 117.777344 51.722656 117.777344 50.96875 L 117.777344 46.746094 L 118.863281 46.746094 L 118.863281 50.890625 C 118.863281 51.433594 118.988281 51.832031 119.242188 52.089844 C 119.492188 52.34375 119.878906 52.472656 120.402344 52.472656 C 121.421875 52.472656 121.929688 51.945312 121.929688 50.882812 L 121.929688 46.746094 Z M 125.523438 53.296875 L 125.523438 46.746094 L 126.601562 46.746094 L 126.601562 52.378906 L 129.390625 52.378906 L 129.390625 53.296875 Z M 133.636719 53.296875 L 132.558594 53.296875 L 132.558594 47.664062 L 130.621094 47.664062 L 130.621094 46.746094 L 135.578125 46.746094 L 135.578125 47.664062 L 133.636719 47.664062 Z M 137.417969 53.296875 L 137.417969 46.746094 L 138.496094 46.746094 L 138.496094 53.296875 Z M 146.558594 53.296875 L 145.238281 53.296875 L 141.996094 48.078125 L 141.960938 48.078125 L 141.980469 48.367188 C 142.023438 48.921875 142.046875 49.433594 142.046875 49.890625 L 142.046875 53.296875 L 141.066406 53.296875 L 141.066406 46.746094 L 142.375 46.746094 L 145.609375 51.941406 L 145.636719 51.941406 C 145.628906 51.871094 145.617188 51.621094 145.597656 51.191406 C 145.582031 50.757812 145.570312 50.421875 145.570312 50.179688 L 145.570312 46.746094 L 146.558594 46.746094 Z M 151.828125 49.742188 L 154.253906 49.742188 L 154.253906 53.035156 C 153.855469 53.164062 153.472656 53.253906 153.109375 53.308594 C 152.742188 53.363281 152.351562 53.386719 151.925781 53.386719 C 150.929688 53.386719 150.15625 53.09375 149.617188 52.507812 C 149.074219 51.921875 148.804688 51.09375 148.804688 50.023438 C 148.804688 48.96875 149.109375 48.140625 149.71875 47.546875 C 150.332031 46.949219 151.171875 46.652344 152.242188 46.652344 C 152.929688 46.652344 153.582031 46.78125 154.199219 47.046875 L 153.820312 47.9375 C 153.285156 47.691406 152.75 47.570312 152.214844 47.570312 C 151.511719 47.570312 150.953125 47.789062 150.546875 48.230469 C 150.136719 48.667969 149.933594 49.269531 149.933594 50.03125 C 149.933594 50.832031 150.117188 51.441406 150.484375 51.859375 C 150.851562 52.273438 151.382812 52.484375 152.074219 52.484375 C 152.421875 52.484375 152.796875 52.441406 153.191406 52.351562 L 153.191406 50.664062 L 151.828125 50.664062 Z M 151.828125 49.742188 " fill-opacity="1" fill-rule="nonzero"/><path fill="#7fc20d" d="M 54.785156 40.15625 L 54.292969 40.203125 L 54.292969 43.855469 C 57.300781 43.453125 60.332031 43.246094 63.367188 43.25 L 64.574219 43.261719 L 66.707031 41.144531 L 66.351562 41.054688 C 62.578125 40.078125 58.664062 39.773438 54.785156 40.15625 " fill-opacity="1" fill-rule="nonzero"/><path fill="#7fc20d" d="M 46.945312 56.050781 L 46.945312 36.992188 L 46.949219 36.992188 C 47.035156 28.714844 53.769531 22.015625 62.101562 21.929688 C 70.679688 21.839844 77.714844 28.863281 77.582031 37.390625 C 77.511719 41.9375 75.4375 46 72.195312 48.746094 L 72.027344 48.578125 C 71.046875 47.601562 70.839844 46.09375 71.539062 44.902344 C 72.847656 42.679688 73.273438 39.523438 73.273438 37.152344 C 73.273438 31.277344 68.179688 27.398438 62.265625 27.398438 C 56.390625 27.398438 51.601562 31.316406 51.542969 37.144531 L 51.542969 54.9375 C 51.542969 55.648438 51.828125 56.332031 52.332031 56.835938 L 52.582031 57.085938 L 50.773438 58.886719 C 49.976562 59.675781 48.691406 59.675781 47.894531 58.886719 C 47.289062 58.28125 46.945312 57.460938 46.945312 56.605469 Z M 46.945312 56.050781 " fill-opacity="1" fill-rule="nonzero"/><path fill="#7fc20d" d="M 33.101562 40.15625 L 33.59375 40.203125 L 33.59375 43.855469 C 30.585938 43.453125 27.554688 43.246094 24.519531 43.25 L 23.3125 43.261719 L 21.179688 41.144531 L 21.539062 41.054688 C 25.308594 40.078125 29.226562 39.773438 33.101562 40.15625 " fill-opacity="1" fill-rule="nonzero"/><path fill="#7fc20d" d="M 40.941406 56.050781 L 40.941406 36.992188 L 40.9375 36.992188 C 40.851562 28.714844 34.117188 22.015625 25.785156 21.929688 C 17.207031 21.839844 10.175781 28.863281 10.304688 37.390625 C 10.375 41.9375 12.449219 46 15.691406 48.746094 L 15.863281 48.578125 C 16.84375 47.601562 17.046875 46.09375 16.347656 44.902344 C 15.042969 42.679688 14.613281 39.523438 14.613281 37.152344 C 14.613281 31.277344 19.710938 27.398438 25.621094 27.398438 C 31.5 27.398438 36.285156 31.316406 36.34375 37.144531 L 36.34375 54.9375 C 36.34375 55.648438 36.058594 56.332031 35.554688 56.835938 L 35.304688 57.085938 L 37.117188 58.886719 C 37.910156 59.675781 39.195312 59.675781 39.992188 58.886719 C 40.601562 58.28125 40.941406 57.460938 40.941406 56.605469 Z M 40.941406 56.050781 " fill-opacity="1" fill-rule="nonzero"/></svg>