<?xml version="1.0" encoding="UTF-8"?><svg xmlns="http://www.w3.org/2000/svg" viewBox="0 0 623.62 255.12"><defs><style>.cls-1{fill:#fff;}.cls-2{fill:#e2a436;}</style></defs><g id="BG"><rect class="cls-1" y="0" width="623.62" height="255.12"/></g><g id="Logo"><g><g><path d="M14.45,149.26c7.07-11.79,14.13-23.57,21.19-35.33-12.43-20.49-7.32-43.53,5.62-57.23,13.63-14.43,37.36-20.08,58.24-7.96,10.66-6.21,22.15-8.13,34.28-5.52,9.63,2.07,17.77,6.88,24.44,14.16,13.52,14.76,16.62,37.59,5.01,56.51l21.19,35.33c-.06,.09-.12,.18-.19,.26l-35.22-21.12c-16.39,9.51-32.91,9.75-49.56,.71-16.53,8.98-32.98,8.81-49.56-.74l-35.19,21.11-.26-.19Zm30.93-36.31l-8.02,13.42,.21,.21,13.39-8.01c12.76,9.44,26.27,11.11,41.03,4.82-10.04-9.54-15.13-21.03-15.13-34.52,0-13.5,5.15-24.95,14.93-34.3-12.05-6.38-30.12-5.47-42.97,6.68-12.19,11.52-17.41,33.51-3.44,51.72Zm61.6,10.48c14.76,6.26,28.29,4.56,40.96-4.87l13.43,8.03,.17-.23-8.05-13.45c13.32-17.34,9.71-39.21-3.5-51.75-13.25-12.59-31.82-12.71-42.83-6.59,19.05,17.48,20.55,49.81-.18,68.86Zm-7.56-64.05c-19.14,15.35-18.29,44.72,.07,59,19.18-15.38,18.24-44.74-.07-59h0Z"/><g><path d="M233.79,64.57l29.12,62.44h-6.74l-9.82-20.54h-26.91l-9.72,20.54h-6.96l29.5-62.44h1.53Zm-.8,13.27l-10.69,22.6h21.35l-10.66-22.6Z"/><path d="M272.54,64.57h12.44c7.13,0,11.94,.31,14.43,.94,3.43,.79,6.5,2.7,8.74,5.41,2.33,2.91,3.53,6.56,3.4,10.29,0,4.16-1.11,7.59-3.32,10.3-2.34,2.79-5.56,4.71-9.12,5.45-2.83,.68-8.12,1.02-15.88,1.02h-4.46v29.04h-6.24v-62.44Zm6.25,6.12v21.19l10.57,.13c4.27,0,7.4-.39,9.38-1.17,1.92-.73,3.56-2.05,4.67-3.77,1.13-1.73,1.72-3.76,1.7-5.83,.01-2.04-.58-4.04-1.7-5.74-1.06-1.68-2.63-2.98-4.48-3.71-1.85-.73-4.89-1.09-9.1-1.1h-11.04Z"/><path d="M324.37,64.57h12.45c6.95,0,11.64,.28,14.09,.85,3.54,.75,6.73,2.67,9.04,5.47,2.36,2.9,3.6,6.56,3.49,10.31,.07,3.16-.77,6.27-2.4,8.97-1.63,2.6-4.02,4.64-6.85,5.84-2.97,1.31-7.07,1.99-12.31,2.02l22.44,28.99h-7.72l-22.44-28.99h-3.53v28.99h-6.24l-.02-62.44Zm6.24,6.12v21.19l10.76,.09c4.17,0,7.25-.4,9.25-1.19,1.93-.73,3.56-2.06,4.67-3.8,1.12-1.74,1.71-3.77,1.68-5.83,.02-2.03-.58-4.02-1.71-5.71-1.07-1.66-2.63-2.95-4.46-3.67-1.84-.72-4.89-1.07-9.17-1.07h-11.02Z"/><path d="M406.56,63.02c9.46,0,17.37,3.16,23.74,9.47,6.37,6.31,9.56,14.08,9.56,23.31,.12,18-14.38,32.69-32.38,32.81-.14,0-.27,0-.41,0-9.26,0-17.08-3.17-23.45-9.51-6.24-6.01-9.7-14.35-9.55-23.01-.04-5.85,1.46-11.6,4.35-16.68,5.71-10.16,16.48-16.43,28.14-16.39Zm.27,6.08c-9.43,.09-18.12,5.16-22.83,13.34-2.34,4.15-3.55,8.86-3.49,13.62-.11,14.5,11.56,26.34,26.06,26.45,.08,0,.17,0,.25,0,4.72,.03,9.36-1.18,13.46-3.53,4.02-2.27,7.35-5.59,9.62-9.62,2.34-4.16,3.53-8.86,3.47-13.62,.06-4.71-1.13-9.35-3.47-13.44-2.33-4.02-5.7-7.34-9.75-9.62-4.05-2.36-8.66-3.61-13.34-3.61l.02,.02Z"/><path d="M452.31,64.57h12.44c7.12,0,11.93,.31,14.43,.94,3.43,.79,6.5,2.7,8.74,5.41,2.32,2.92,3.53,6.57,3.39,10.29,0,4.16-1.1,7.59-3.31,10.3-2.35,2.79-5.56,4.71-9.13,5.45-2.83,.68-8.12,1.02-15.87,1.02h-4.46v29.04h-6.24v-62.44Zm6.25,6.12v21.19l10.56,.13c4.27,0,7.4-.39,9.39-1.17,1.92-.73,3.55-2.05,4.66-3.77,1.13-1.73,1.72-3.76,1.7-5.83,.01-2.04-.58-4.04-1.7-5.74-1.06-1.68-2.63-2.98-4.47-3.71-1.86-.73-4.89-1.09-9.1-1.1h-11.04Z"/><path d="M533.53,63.02c9.46,0,17.37,3.16,23.75,9.47,6.37,6.31,9.56,14.07,9.57,23.28,.12,18-14.38,32.69-32.38,32.81-.14,0-.27,0-.41,0-9.25,0-17.07-3.17-23.45-9.51-6.24-6.01-9.7-14.35-9.55-23.01-.04-5.85,1.46-11.6,4.35-16.68,5.72-10.15,16.48-16.41,28.12-16.37Zm.28,6.08c-9.44,.09-18.12,5.16-22.83,13.34-2.34,4.15-3.55,8.86-3.49,13.62-.1,14.51,11.59,26.35,26.1,26.45,.08,0,.15,0,.23,0,4.72,.03,9.36-1.19,13.46-3.53,4.02-2.27,7.35-5.6,9.62-9.62,2.33-4.16,3.53-8.86,3.46-13.62,.06-4.71-1.13-9.35-3.46-13.44-2.33-4.02-5.7-7.35-9.76-9.62-4.04-2.36-8.63-3.61-13.31-3.61v.02Z"/><path d="M572.91,115.38l5.31-3.21c3.74,6.88,8.05,10.31,12.94,10.31,2.06,0,4.09-.49,5.9-1.47,1.74-.89,3.2-2.25,4.21-3.93,.94-1.58,1.44-3.38,1.44-5.22-.04-2.22-.79-4.38-2.12-6.16-1.96-2.77-5.52-6.11-10.7-10.02-5.18-3.91-8.42-6.75-9.72-8.54-2.13-2.73-3.3-6.08-3.31-9.55-.03-2.61,.64-5.18,1.96-7.43,1.3-2.24,3.21-4.07,5.5-5.29,2.36-1.29,5.01-1.95,7.7-1.93,2.9-.01,5.74,.74,8.26,2.19,2.56,1.46,5.27,4.13,8.13,8.01l-5.09,3.86c-2.35-3.12-4.35-5.17-6.01-6.16-1.63-.99-3.5-1.5-5.41-1.49-2.28-.09-4.5,.74-6.18,2.29-1.56,1.45-2.43,3.48-2.4,5.61,0,1.36,.29,2.7,.85,3.94,.78,1.56,1.83,2.97,3.1,4.16,.82,.8,3.51,2.88,8.06,6.24,5.4,3.99,9.11,7.54,11.12,10.65,1.9,2.77,2.94,6.03,3.01,9.39,.02,4.48-1.86,8.77-5.16,11.8-3.33,3.3-7.86,5.1-12.54,5.01-3.65,.06-7.24-.96-10.31-2.95-3.08-2.01-5.93-5.4-8.53-10.15Z"/></g></g><g><path class="cls-2" d="M17.35,205.93h11.87v2.82H14.17v-22.72h14.57v2.79h-11.39v6.8h10.72v2.73h-10.72v7.57Z"/><path class="cls-2" d="M40.68,204.65h.1l6.84-18.61h3.43l-8.92,22.72h-2.95l-8.86-22.72h3.53l6.83,18.61Z"/><path class="cls-2" d="M56.59,205.93h11.87v2.82h-15.05v-22.72h14.57v2.79h-11.39v6.8h10.72v2.73h-10.72v7.57Z"/><path class="cls-2" d="M88.4,204.2h.06v-18.16h3.18v22.72h-4.01l-12-18.55h-.06v18.55h-3.18v-22.72h4.14l11.87,18.16Z"/><path class="cls-2" d="M104.79,208.76h-3.18v-19.93h-7.28v-2.79h17.75v2.79h-7.29v19.93Z"/><path class="cls-2" d="M126.07,190.24c-.45-.62-1.06-1.13-1.83-1.53-.77-.39-1.64-.59-2.6-.59-.51,0-1.03,.07-1.56,.21s-1,.36-1.43,.67c-.43,.31-.78,.7-1.04,1.16-.27,.46-.4,1.01-.4,1.65s.12,1.14,.37,1.56c.25,.42,.58,.77,.99,1.06,.42,.29,.91,.53,1.48,.74,.57,.2,1.17,.41,1.81,.63,.77,.24,1.55,.5,2.34,.8,.79,.3,1.51,.7,2.15,1.19,.64,.49,1.17,1.11,1.57,1.84,.41,.74,.61,1.67,.61,2.81s-.22,2.2-.66,3.06c-.44,.87-1.02,1.58-1.75,2.15-.73,.57-1.57,.99-2.52,1.27s-1.93,.42-2.94,.42c-1.43,0-2.82-.28-4.16-.83-1.34-.56-2.44-1.38-3.32-2.47l2.47-2.09c.53,.79,1.25,1.43,2.15,1.93,.9,.49,1.87,.74,2.92,.74,.53,0,1.07-.08,1.6-.22s1.02-.39,1.46-.71c.44-.32,.8-.72,1.07-1.2,.28-.48,.42-1.06,.42-1.75s-.14-1.26-.43-1.72c-.29-.46-.68-.85-1.17-1.17s-1.06-.59-1.72-.82c-.65-.22-1.34-.45-2.07-.69-.73-.21-1.44-.48-2.15-.79-.71-.31-1.34-.71-1.89-1.19-.56-.48-1-1.07-1.35-1.78s-.51-1.58-.51-2.63c0-1.13,.23-2.11,.69-2.92,.46-.81,1.06-1.49,1.8-2.02,.74-.53,1.57-.93,2.5-1.17,.93-.25,1.87-.37,2.81-.37,1.33,0,2.57,.24,3.72,.71,1.16,.47,2.09,1.1,2.79,1.89l-2.25,2.18Z"/><path class="cls-2" d="M133.61,213.02h-2.57l2.21-8.02h3.02l-2.66,8.02Z"/><path class="cls-2" d="M166.95,205.23c-.9,1.22-2.07,2.21-3.5,2.97-1.43,.76-3.16,1.14-5.17,1.14-1.73,0-3.33-.29-4.8-.88-1.47-.59-2.73-1.41-3.79-2.47-1.06-1.06-1.89-2.32-2.49-3.79s-.9-3.08-.9-4.83,.31-3.4,.92-4.86c.61-1.46,1.45-2.72,2.53-3.75,1.08-1.04,2.36-1.84,3.83-2.42,1.48-.58,3.08-.87,4.81-.87,.77,0,1.55,.08,2.34,.22,.79,.15,1.55,.38,2.28,.67,.73,.3,1.39,.67,1.99,1.11,.6,.44,1.11,.95,1.54,1.52l-2.5,1.93c-.56-.77-1.34-1.41-2.36-1.91s-2.11-.75-3.29-.75c-1.33,0-2.52,.24-3.58,.72s-1.96,1.14-2.71,1.97c-.75,.83-1.33,1.8-1.73,2.91s-.61,2.27-.61,3.51,.2,2.48,.59,3.59,.96,2.08,1.7,2.9c.74,.82,1.64,1.47,2.7,1.94,1.06,.47,2.24,.71,3.55,.71s2.45-.26,3.5-.77c1.05-.51,1.91-1.26,2.6-2.25l2.54,1.73Z"/><path class="cls-2" d="M192.4,197.36c0,1.75-.31,3.36-.92,4.83-.61,1.47-1.45,2.73-2.52,3.79-1.07,1.06-2.34,1.88-3.82,2.47s-3.08,.88-4.81,.88-3.33-.29-4.8-.88c-1.47-.59-2.73-1.41-3.8-2.47-1.07-1.06-1.9-2.32-2.5-3.79s-.9-3.08-.9-4.83,.3-3.4,.9-4.86c.6-1.46,1.43-2.72,2.5-3.75,1.07-1.04,2.34-1.84,3.8-2.42,1.46-.58,3.06-.87,4.8-.87s3.34,.29,4.81,.87,2.75,1.39,3.82,2.42c1.07,1.04,1.91,2.29,2.52,3.75,.61,1.47,.92,3.09,.92,4.86Zm-3.43,0c0-1.24-.2-2.41-.61-3.51s-.98-2.07-1.73-2.91c-.75-.83-1.65-1.49-2.71-1.97-1.06-.48-2.25-.72-3.58-.72s-2.49,.24-3.55,.72c-1.06,.48-1.96,1.14-2.7,1.97-.74,.83-1.31,1.8-1.72,2.91-.41,1.1-.61,2.27-.61,3.51s.2,2.45,.61,3.56c.41,1.11,.98,2.08,1.73,2.9,.75,.82,1.65,1.47,2.7,1.94,1.05,.47,2.23,.71,3.53,.71s2.49-.24,3.56-.71c1.07-.47,1.98-1.12,2.73-1.94,.75-.82,1.33-1.79,1.73-2.9,.41-1.11,.61-2.3,.61-3.56Z"/><path class="cls-2" d="M208.16,203.49h.06l6.71-17.46h4.94v22.72h-3.18v-19h-.06l-7.54,19h-2.02l-7.51-19h-.06v19h-3.08v-22.72h4.94l6.8,17.46Z"/><path class="cls-2" d="M236.81,203.49h.06l6.71-17.46h4.94v22.72h-3.18v-19h-.06l-7.54,19h-2.02l-7.51-19h-.06v19h-3.08v-22.72h4.94l6.8,17.46Z"/><path class="cls-2" d="M262.39,209.33c-1.5,0-2.8-.25-3.92-.75s-2.03-1.17-2.76-2.01c-.73-.83-1.27-1.79-1.62-2.87s-.53-2.2-.53-3.35v-14.31h3.18v14.12c0,.77,.1,1.54,.29,2.3s.51,1.44,.95,2.04c.44,.6,1.02,1.08,1.73,1.44s1.61,.55,2.68,.55,1.94-.18,2.66-.55,1.31-.85,1.75-1.44c.44-.6,.75-1.28,.95-2.04,.19-.76,.29-1.53,.29-2.3v-14.12h3.18v14.31c0,1.16-.18,2.27-.53,3.35-.35,1.08-.89,2.04-1.62,2.87s-1.65,1.5-2.76,2.01-2.42,.75-3.92,.75Z"/><path class="cls-2" d="M292.26,204.2h.06v-18.16h3.18v22.72h-4.01l-12-18.55h-.06v18.55h-3.18v-22.72h4.14l11.87,18.16Z"/><path class="cls-2" d="M303.88,208.76h-3.18v-22.72h3.18v22.72Z"/><path class="cls-2" d="M317.04,208.76h-3.18v-19.93h-7.28v-2.79h17.75v2.79h-7.29v19.93Z"/><path class="cls-2" d="M330.19,208.76h-3.18v-22.72h3.18v22.72Z"/><path class="cls-2" d="M338.57,205.93h11.87v2.82h-15.05v-22.72h14.57v2.79h-11.39v6.8h10.72v2.73h-10.72v7.57Z"/><path class="cls-2" d="M365.66,190.24c-.45-.62-1.06-1.13-1.83-1.53-.77-.39-1.64-.59-2.6-.59-.51,0-1.03,.07-1.56,.21s-1,.36-1.43,.67c-.43,.31-.78,.7-1.04,1.16s-.4,1.01-.4,1.65,.12,1.14,.37,1.56c.25,.42,.58,.77,.99,1.06,.42,.29,.91,.53,1.48,.74,.57,.2,1.17,.41,1.81,.63,.77,.24,1.55,.5,2.34,.8,.79,.3,1.51,.7,2.15,1.19s1.17,1.11,1.57,1.84c.41,.74,.61,1.67,.61,2.81s-.22,2.2-.66,3.06c-.44,.87-1.02,1.58-1.75,2.15-.73,.57-1.57,.99-2.52,1.27-.95,.28-1.93,.42-2.94,.42-1.43,0-2.82-.28-4.16-.83-1.34-.56-2.44-1.38-3.32-2.47l2.47-2.09c.53,.79,1.25,1.43,2.15,1.93,.9,.49,1.87,.74,2.92,.74,.53,0,1.07-.08,1.6-.22s1.02-.39,1.46-.71,.8-.72,1.07-1.2,.42-1.06,.42-1.75-.14-1.26-.43-1.72c-.29-.46-.68-.85-1.17-1.17-.49-.32-1.06-.59-1.72-.82-.65-.22-1.34-.45-2.07-.69-.73-.21-1.45-.48-2.15-.79-.7-.31-1.34-.71-1.89-1.19s-1-1.07-1.35-1.78-.51-1.58-.51-2.63c0-1.13,.23-2.11,.69-2.92,.46-.81,1.06-1.49,1.8-2.02,.74-.53,1.57-.93,2.5-1.17,.93-.25,1.87-.37,2.81-.37,1.33,0,2.57,.24,3.72,.71,1.16,.47,2.09,1.1,2.79,1.89l-2.25,2.18Z"/><path class="cls-2" d="M373.2,213.02h-2.57l2.21-8.02h3.02l-2.66,8.02Z"/><path class="cls-2" d="M387.41,208.76h-3.53l9.85-22.72h2.89l9.75,22.72h-3.59l-2.31-5.58h-10.78l-2.28,5.58Zm3.4-8.38h8.5l-4.24-10.65-4.27,10.65Z"/><path class="cls-2" d="M424.99,204.2h.06v-18.16h3.18v22.72h-4.01l-12-18.55h-.06v18.55h-3.18v-22.72h4.14l11.88,18.16Z"/><path class="cls-2" d="M433.43,186.04h7.8c1.46,0,2.91,.21,4.36,.64,1.46,.43,2.77,1.1,3.95,2.02,1.18,.92,2.13,2.1,2.86,3.53,.73,1.43,1.09,3.16,1.09,5.17s-.36,3.63-1.09,5.05c-.73,1.42-1.68,2.6-2.86,3.53-1.18,.93-2.49,1.63-3.95,2.09-1.45,.46-2.91,.69-4.36,.69h-7.8v-22.72Zm3.18,19.93h3.98c1.37,0,2.64-.19,3.8-.58,1.17-.38,2.17-.94,3.02-1.67,.85-.73,1.5-1.63,1.97-2.7,.47-1.07,.71-2.28,.71-3.63s-.24-2.65-.71-3.72-1.13-1.96-1.97-2.68c-.84-.72-1.85-1.26-3.02-1.64-1.17-.37-2.43-.56-3.8-.56h-3.98v17.17Z"/><path class="cls-2" d="M472.42,208.76h-3.18v-19.93h-7.29v-2.79h17.75v2.79h-7.29v19.93Z"/><path class="cls-2" d="M485.58,208.76h-3.18v-22.72h7.29c1.09,0,2.13,.11,3.11,.34,.98,.22,1.84,.58,2.58,1.07s1.32,1.14,1.75,1.94,.64,1.78,.64,2.94c0,1.67-.51,3.02-1.54,4.04-1.03,1.03-2.35,1.68-3.98,1.96l6.36,10.43h-3.85l-5.78-10.11h-3.4v10.11Zm0-12.77h3.66c.75,0,1.44-.06,2.09-.19s1.2-.34,1.68-.63c.48-.29,.86-.66,1.14-1.12,.28-.46,.42-1.03,.42-1.72s-.14-1.26-.42-1.72-.65-.83-1.11-1.11c-.46-.28-1-.48-1.62-.59-.62-.12-1.27-.18-1.96-.18h-3.88v7.25Z"/><path class="cls-2" d="M502.71,208.76h-3.53l9.85-22.72h2.89l9.75,22.72h-3.59l-2.31-5.58h-10.78l-2.28,5.58Zm3.4-8.38h8.5l-4.24-10.65-4.27,10.65Z"/><path class="cls-2" d="M527.46,208.76h-3.18v-22.72h3.18v22.72Z"/><path class="cls-2" d="M548.67,204.2h.06v-18.16h3.18v22.72h-4.01l-12-18.55h-.06v18.55h-3.18v-22.72h4.14l11.88,18.16Z"/><path class="cls-2" d="M560.29,208.76h-3.18v-22.72h3.18v22.72Z"/><path class="cls-2" d="M581.5,204.2h.06v-18.16h3.18v22.72h-4.01l-12-18.55h-.06v18.55h-3.18v-22.72h4.14l11.88,18.16Z"/><path class="cls-2" d="M607.07,190.72c-.69-.75-1.56-1.35-2.62-1.8s-2.24-.67-3.55-.67-2.52,.24-3.59,.72-1.98,1.14-2.73,1.97c-.75,.83-1.33,1.8-1.73,2.91-.41,1.1-.61,2.27-.61,3.51s.2,2.45,.61,3.56c.41,1.11,.98,2.08,1.73,2.9,.75,.82,1.67,1.47,2.76,1.94,1.09,.47,2.31,.71,3.66,.71,1.07,0,2.05-.1,2.95-.29,.9-.19,1.68-.47,2.34-.83v-6.32h-5.04v-2.7h8.18v11.01c-1.2,.64-2.5,1.13-3.92,1.48-1.41,.34-2.95,.51-4.62,.51-1.78,0-3.41-.29-4.89-.88-1.49-.59-2.77-1.41-3.84-2.47-1.07-1.06-1.9-2.32-2.5-3.79s-.9-3.08-.9-4.83,.31-3.4,.92-4.86c.61-1.46,1.45-2.72,2.53-3.75,1.08-1.04,2.36-1.84,3.84-2.42,1.47-.58,3.08-.87,4.81-.87s3.44,.27,4.86,.8c1.42,.53,2.6,1.25,3.55,2.15l-2.21,2.31Z"/></g></g></g></svg>