<svg xmlns="http://www.w3.org/2000/svg" xmlns:xlink="http://www.w3.org/1999/xlink" width="220" zoomAndPan="magnify" viewBox="0 0 165 82.499998" height="110" preserveAspectRatio="xMidYMid meet" version="1.0"><defs><g/><clipPath id="b7ef42a82b"><path d="M 0.496094 0 L 164.503906 0 L 164.503906 82.003906 L 0.496094 82.003906 Z M 0.496094 0 " clip-rule="nonzero"/></clipPath><clipPath id="9b1d354052"><path d="M 8.816406 20.898438 L 156.421875 20.898438 L 156.421875 61.152344 L 8.816406 61.152344 Z M 8.816406 20.898438 " clip-rule="nonzero"/></clipPath></defs><g clip-path="url(#b7ef42a82b)"><path fill="#ffffff" d="M 0.496094 0 L 164.503906 0 L 164.503906 82.003906 L 0.496094 82.003906 Z M 0.496094 0 " fill-opacity="1" fill-rule="nonzero"/></g><g clip-path="url(#9b1d354052)"><rect x="-16.5" width="198" fill="#f7f7f7" y="-8.25" height="98.999997" fill-opacity="1"/></g><g fill="#000000" fill-opacity="1"><g transform="translate(83.437128, 40.895597)"><g><path d="M 4.203125 -4.609375 L 4.203125 -0.8125 L 6 -0.59375 L 6 0 L 0.390625 0 L 0.390625 -0.59375 L 1.671875 -0.8125 L 1.671875 -10.015625 L 0.28125 -10.21875 L 0.28125 -10.8125 L 9.28125 -10.8125 L 9.28125 -7.90625 L 8.53125 -7.90625 L 8.265625 -9.8125 C 8.003906 -9.851562 7.566406 -9.878906 6.953125 -9.890625 C 6.347656 -9.910156 5.875 -9.921875 5.53125 -9.921875 L 4.203125 -9.921875 L 4.203125 -5.5 L 6.828125 -5.5 L 7.078125 -6.875 L 7.796875 -6.875 L 7.796875 -3.21875 L 7.078125 -3.21875 L 6.828125 -4.609375 Z M 4.203125 -4.609375 "/></g></g></g><g fill="#000000" fill-opacity="1"><g transform="translate(93.701605, 40.895597)"><g><path d="M 4.46875 -0.8125 L 5.859375 -0.59375 L 5.859375 0 L 0.5625 0 L 0.5625 -0.59375 L 1.9375 -0.8125 L 1.9375 -10 L 0.5625 -10.21875 L 0.5625 -10.8125 L 5.859375 -10.8125 L 5.859375 -10.21875 L 4.46875 -10 Z M 4.46875 -0.8125 "/></g></g></g><g fill="#000000" fill-opacity="1"><g transform="translate(100.214481, 40.895597)"><g><path d="M 5.875 -10.21875 L 4.203125 -10.015625 L 4.203125 -0.859375 L 6.40625 -0.859375 C 7.539062 -0.859375 8.378906 -0.910156 8.921875 -1.015625 L 9.578125 -3.265625 L 10.296875 -3.265625 L 10 0 L 0.28125 0 L 0.28125 -0.59375 L 1.671875 -0.8125 L 1.671875 -10.015625 L 0.296875 -10.21875 L 0.296875 -10.8125 L 5.875 -10.8125 Z M 5.875 -10.21875 "/></g></g></g><g fill="#000000" fill-opacity="1"><g transform="translate(110.63042, 40.895597)"><g><path d="M 4.46875 -0.8125 L 5.859375 -0.59375 L 5.859375 0 L 0.5625 0 L 0.5625 -0.59375 L 1.9375 -0.8125 L 1.9375 -10 L 0.5625 -10.21875 L 0.5625 -10.8125 L 5.859375 -10.8125 L 5.859375 -10.21875 L 4.46875 -10 Z M 4.46875 -0.8125 "/></g></g></g><g fill="#000000" fill-opacity="1"><g transform="translate(117.143296, 40.895597)"><g><path d="M 9.296875 -10.015625 L 7.84375 -10.21875 L 7.84375 -10.8125 L 11.6875 -10.8125 L 11.6875 -10.21875 L 10.296875 -10.015625 L 10.296875 0 L 9.359375 0 L 2.703125 -8.6875 L 2.703125 -0.8125 L 4.15625 -0.59375 L 4.15625 0 L 0.3125 0 L 0.3125 -0.59375 L 1.703125 -0.8125 L 1.703125 -10.015625 L 0.3125 -10.21875 L 0.3125 -10.8125 L 4.015625 -10.8125 L 9.296875 -3.90625 Z M 9.296875 -10.015625 "/></g></g></g><g fill="#000000" fill-opacity="1"><g transform="translate(131.543857, 40.895597)"><g><path d="M 3.4375 -0.59375 L 3.4375 0 L 0.15625 0 L 0.15625 -0.59375 L 0.96875 -0.8125 L 4.8125 -10.90625 L 7.140625 -10.90625 L 10.96875 -0.8125 L 11.78125 -0.59375 L 11.78125 0 L 6.984375 0 L 6.984375 -0.59375 L 8.21875 -0.8125 L 7.203125 -3.609375 L 3.046875 -3.609375 L 2.0625 -0.8125 Z M 5.15625 -9.28125 L 3.375 -4.484375 L 6.890625 -4.484375 Z M 5.15625 -9.28125 "/></g></g></g><g fill="#000000" fill-opacity="1"><g transform="translate(84.474061, 51.271835)"><g><path d="M 3.21875 0.078125 C 2.332031 0.078125 1.640625 -0.15625 1.140625 -0.625 C 0.640625 -1.101562 0.390625 -1.757812 0.390625 -2.59375 C 0.390625 -3.5 0.628906 -4.1875 1.109375 -4.65625 C 1.585938 -5.132812 2.289062 -5.375 3.21875 -5.375 C 3.832031 -5.375 4.46875 -5.285156 5.125 -5.109375 L 5.15625 -3.828125 L 4.796875 -3.828125 L 4.6875 -4.59375 C 4.332031 -4.832031 3.925781 -4.953125 3.46875 -4.953125 C 2.851562 -4.953125 2.40625 -4.757812 2.125 -4.375 C 1.84375 -4 1.703125 -3.410156 1.703125 -2.609375 C 1.703125 -1.867188 1.847656 -1.300781 2.140625 -0.90625 C 2.441406 -0.519531 2.875 -0.328125 3.4375 -0.328125 C 3.738281 -0.328125 4 -0.363281 4.21875 -0.4375 C 4.4375 -0.519531 4.613281 -0.617188 4.75 -0.734375 L 4.875 -1.59375 L 5.234375 -1.59375 L 5.203125 -0.25 C 4.960938 -0.15625 4.65625 -0.078125 4.28125 -0.015625 C 3.90625 0.046875 3.550781 0.078125 3.21875 0.078125 Z M 3.21875 0.078125 "/></g></g></g><g fill="#000000" fill-opacity="1"><g transform="translate(90.334484, 51.271835)"><g><path d="M 1.703125 -2.65625 C 1.703125 -1.8125 1.816406 -1.207031 2.046875 -0.84375 C 2.285156 -0.488281 2.65625 -0.3125 3.15625 -0.3125 C 3.644531 -0.3125 4.003906 -0.492188 4.234375 -0.859375 C 4.472656 -1.222656 4.59375 -1.820312 4.59375 -2.65625 C 4.59375 -3.5 4.472656 -4.09375 4.234375 -4.4375 C 4.003906 -4.789062 3.644531 -4.96875 3.15625 -4.96875 C 2.65625 -4.96875 2.285156 -4.789062 2.046875 -4.4375 C 1.816406 -4.09375 1.703125 -3.5 1.703125 -2.65625 Z M 0.390625 -2.65625 C 0.390625 -4.46875 1.3125 -5.375 3.15625 -5.375 C 4.0625 -5.375 4.742188 -5.144531 5.203125 -4.6875 C 5.671875 -4.226562 5.90625 -3.550781 5.90625 -2.65625 C 5.90625 -1.757812 5.671875 -1.078125 5.203125 -0.609375 C 4.734375 -0.148438 4.050781 0.078125 3.15625 0.078125 C 2.257812 0.078125 1.570312 -0.148438 1.09375 -0.609375 C 0.625 -1.078125 0.390625 -1.757812 0.390625 -2.65625 Z M 0.390625 -2.65625 "/></g></g></g><g fill="#000000" fill-opacity="1"><g transform="translate(97.429906, 51.271835)"><g><path d="M 4.5625 -4.921875 L 3.859375 -5.015625 L 3.859375 -5.3125 L 5.734375 -5.3125 L 5.734375 -5.015625 L 5.0625 -4.921875 L 5.0625 0 L 4.59375 0 L 1.328125 -4.265625 L 1.328125 -0.390625 L 2.046875 -0.28125 L 2.046875 0 L 0.15625 0 L 0.15625 -0.28125 L 0.828125 -0.390625 L 0.828125 -4.921875 L 0.15625 -5.015625 L 0.15625 -5.3125 L 1.96875 -5.3125 L 4.5625 -1.921875 Z M 4.5625 -4.921875 "/></g></g></g><g fill="#000000" fill-opacity="1"><g transform="translate(104.490375, 51.271835)"><g><path d="M 0.4375 -1.625 L 0.78125 -1.625 L 0.953125 -0.78125 C 1.066406 -0.644531 1.234375 -0.535156 1.453125 -0.453125 C 1.679688 -0.367188 1.914062 -0.328125 2.15625 -0.328125 C 2.90625 -0.328125 3.28125 -0.632812 3.28125 -1.25 C 3.28125 -1.445312 3.207031 -1.613281 3.0625 -1.75 C 2.925781 -1.882812 2.703125 -2.003906 2.390625 -2.109375 C 1.941406 -2.265625 1.617188 -2.390625 1.421875 -2.484375 C 1.222656 -2.578125 1.050781 -2.6875 0.90625 -2.8125 C 0.769531 -2.9375 0.660156 -3.085938 0.578125 -3.265625 C 0.503906 -3.453125 0.46875 -3.675781 0.46875 -3.9375 C 0.46875 -4.40625 0.625 -4.757812 0.9375 -5 C 1.257812 -5.25 1.722656 -5.375 2.328125 -5.375 C 2.773438 -5.375 3.265625 -5.316406 3.796875 -5.203125 L 3.796875 -3.9375 L 3.453125 -3.9375 L 3.265625 -4.671875 C 3.003906 -4.859375 2.691406 -4.953125 2.328125 -4.953125 C 2.003906 -4.953125 1.753906 -4.890625 1.578125 -4.765625 C 1.410156 -4.648438 1.328125 -4.46875 1.328125 -4.21875 C 1.328125 -4.039062 1.398438 -3.890625 1.546875 -3.765625 C 1.691406 -3.640625 1.914062 -3.53125 2.21875 -3.4375 C 2.820312 -3.238281 3.234375 -3.066406 3.453125 -2.921875 C 3.679688 -2.773438 3.851562 -2.59375 3.96875 -2.375 C 4.09375 -2.15625 4.15625 -1.898438 4.15625 -1.609375 C 4.15625 -0.484375 3.492188 0.078125 2.171875 0.078125 C 1.867188 0.078125 1.554688 0.0507812 1.234375 0 C 0.921875 -0.0507812 0.65625 -0.117188 0.4375 -0.203125 Z M 0.4375 -1.625 "/></g></g></g><g fill="#000000" fill-opacity="1"><g transform="translate(109.663392, 51.271835)"><g><path d="M 3.3125 -0.484375 C 3.707031 -0.484375 4.007812 -0.59375 4.21875 -0.8125 C 4.4375 -1.03125 4.546875 -1.359375 4.546875 -1.796875 L 4.546875 -4.921875 L 3.84375 -5.015625 L 3.84375 -5.3125 L 5.640625 -5.3125 L 5.640625 -5.015625 L 5.046875 -4.921875 L 5.046875 -1.828125 C 5.046875 -1.210938 4.867188 -0.738281 4.515625 -0.40625 C 4.160156 -0.0820312 3.65625 0.078125 3 0.078125 C 2.289062 0.078125 1.742188 -0.0859375 1.359375 -0.421875 C 0.984375 -0.753906 0.796875 -1.234375 0.796875 -1.859375 L 0.796875 -4.921875 L 0.203125 -5.015625 L 0.203125 -5.3125 L 2.734375 -5.3125 L 2.734375 -5.015625 L 2.046875 -4.921875 L 2.046875 -1.796875 C 2.046875 -1.378906 2.148438 -1.054688 2.359375 -0.828125 C 2.578125 -0.597656 2.894531 -0.484375 3.3125 -0.484375 Z M 3.3125 -0.484375 "/></g></g></g><g fill="#000000" fill-opacity="1"><g transform="translate(116.397635, 51.271835)"><g><path d="M 2.875 -5.015625 L 2.0625 -4.921875 L 2.0625 -0.421875 L 3.140625 -0.421875 C 3.703125 -0.421875 4.113281 -0.445312 4.375 -0.5 L 4.703125 -1.609375 L 5.0625 -1.609375 L 4.90625 0 L 0.140625 0 L 0.140625 -0.28125 L 0.8125 -0.390625 L 0.8125 -4.921875 L 0.140625 -5.015625 L 0.140625 -5.3125 L 2.875 -5.3125 Z M 2.875 -5.015625 "/></g></g></g><g fill="#000000" fill-opacity="1"><g transform="translate(121.512398, 51.271835)"><g><path d="M 1.21875 0 L 1.21875 -0.28125 L 2.0625 -0.390625 L 2.0625 -4.890625 L 1.859375 -4.890625 C 1.253906 -4.890625 0.832031 -4.863281 0.59375 -4.8125 L 0.484375 -3.828125 L 0.125 -3.828125 L 0.125 -5.3125 L 5.28125 -5.3125 L 5.28125 -3.828125 L 4.90625 -3.828125 L 4.8125 -4.8125 C 4.59375 -4.851562 4.160156 -4.875 3.515625 -4.875 L 3.3125 -4.875 L 3.3125 -0.390625 L 4.15625 -0.28125 L 4.15625 0 Z M 1.21875 0 "/></g></g></g><g fill="#000000" fill-opacity="1"><g transform="translate(126.825226, 51.271835)"><g><path d="M 2.203125 -0.390625 L 2.875 -0.296875 L 2.875 0 L 0.265625 0 L 0.265625 -0.296875 L 0.953125 -0.390625 L 0.953125 -4.90625 L 0.265625 -5.015625 L 0.265625 -5.3125 L 2.875 -5.3125 L 2.875 -5.015625 L 2.203125 -4.90625 Z M 2.203125 -0.390625 "/></g></g></g><g fill="#000000" fill-opacity="1"><g transform="translate(130.017584, 51.271835)"><g><path d="M 4.5625 -4.921875 L 3.859375 -5.015625 L 3.859375 -5.3125 L 5.734375 -5.3125 L 5.734375 -5.015625 L 5.0625 -4.921875 L 5.0625 0 L 4.59375 0 L 1.328125 -4.265625 L 1.328125 -0.390625 L 2.046875 -0.28125 L 2.046875 0 L 0.15625 0 L 0.15625 -0.28125 L 0.828125 -0.390625 L 0.828125 -4.921875 L 0.15625 -5.015625 L 0.15625 -5.3125 L 1.96875 -5.3125 L 4.5625 -1.921875 Z M 4.5625 -4.921875 "/></g></g></g><g fill="#000000" fill-opacity="1"><g transform="translate(137.078053, 51.271835)"><g><path d="M 5.5625 -0.28125 C 5.226562 -0.164062 4.84375 -0.078125 4.40625 -0.015625 C 3.976562 0.046875 3.59375 0.078125 3.25 0.078125 C 2.675781 0.078125 2.171875 -0.0234375 1.734375 -0.234375 C 1.304688 -0.441406 0.972656 -0.75 0.734375 -1.15625 C 0.503906 -1.5625 0.390625 -2.039062 0.390625 -2.59375 C 0.390625 -3.476562 0.644531 -4.160156 1.15625 -4.640625 C 1.664062 -5.128906 2.390625 -5.375 3.328125 -5.375 C 3.554688 -5.375 3.765625 -5.363281 3.953125 -5.34375 C 4.140625 -5.320312 4.316406 -5.296875 4.484375 -5.265625 C 4.648438 -5.234375 4.945312 -5.15625 5.375 -5.03125 L 5.375 -3.8125 L 5.03125 -3.8125 L 4.9375 -4.5 C 4.726562 -4.644531 4.5 -4.753906 4.25 -4.828125 C 4 -4.910156 3.738281 -4.953125 3.46875 -4.953125 C 2.851562 -4.953125 2.40625 -4.757812 2.125 -4.375 C 1.84375 -4 1.703125 -3.40625 1.703125 -2.59375 C 1.703125 -1.851562 1.847656 -1.289062 2.140625 -0.90625 C 2.441406 -0.519531 2.875 -0.328125 3.4375 -0.328125 C 3.738281 -0.328125 4.03125 -0.375 4.3125 -0.46875 L 4.3125 -2 L 3.625 -2.109375 L 3.625 -2.40625 L 6.078125 -2.40625 L 6.078125 -2.109375 L 5.5625 -2 Z M 5.5625 -0.28125 "/></g></g></g><path fill="#7fc20d" d="M 55.191406 39.671875 L 54.757812 39.714844 L 54.757812 42.941406 C 57.394531 42.582031 60.050781 42.402344 62.707031 42.402344 L 63.765625 42.414062 L 65.632812 40.546875 L 65.320312 40.464844 C 62.015625 39.605469 58.585938 39.335938 55.191406 39.671875 " fill-opacity="1" fill-rule="nonzero"/><path fill="#7fc20d" d="M 48.324219 53.707031 L 48.324219 36.878906 C 48.398438 29.566406 54.300781 23.65625 61.597656 23.578125 C 69.113281 23.5 75.273438 29.699219 75.160156 37.230469 C 75.101562 41.246094 73.28125 44.832031 70.441406 47.257812 L 70.292969 47.109375 C 69.433594 46.246094 69.253906 44.914062 69.867188 43.863281 C 71.011719 41.902344 71.386719 39.113281 71.386719 37.019531 C 71.386719 31.832031 66.921875 28.410156 61.742188 28.410156 C 56.59375 28.410156 52.402344 31.867188 52.351562 37.011719 L 52.347656 37.011719 L 52.347656 52.722656 C 52.347656 53.351562 52.597656 53.957031 53.042969 54.398438 L 53.261719 54.621094 L 51.675781 56.210938 C 50.976562 56.90625 49.851562 56.90625 49.15625 56.210938 C 48.621094 55.675781 48.320312 54.949219 48.324219 54.195312 Z M 48.324219 53.707031 " fill-opacity="1" fill-rule="nonzero"/><path fill="#7fc20d" d="M 36.195312 39.671875 L 36.625 39.714844 L 36.625 42.941406 C 33.992188 42.582031 31.335938 42.402344 28.675781 42.402344 L 27.617188 42.414062 L 25.75 40.546875 L 26.0625 40.464844 C 29.367188 39.605469 32.796875 39.335938 36.195312 39.671875 " fill-opacity="1" fill-rule="nonzero"/><path fill="#7fc20d" d="M 43.0625 53.707031 L 43.0625 36.878906 L 43.058594 36.878906 C 42.984375 29.566406 37.085938 23.65625 29.785156 23.578125 C 22.269531 23.5 16.109375 29.699219 16.222656 37.230469 C 16.285156 41.246094 18.101562 44.832031 20.941406 47.257812 L 21.089844 47.109375 C 21.949219 46.246094 22.132812 44.914062 21.519531 43.863281 C 20.371094 41.902344 20 39.113281 20 37.019531 C 20 31.832031 24.460938 28.410156 29.640625 28.410156 C 34.789062 28.410156 38.984375 31.867188 39.035156 37.011719 L 39.035156 52.722656 C 39.035156 53.351562 38.785156 53.957031 38.34375 54.398438 L 38.125 54.621094 L 39.710938 56.210938 C 40.40625 56.90625 41.535156 56.90625 42.230469 56.210938 C 42.761719 55.675781 43.0625 54.949219 43.0625 54.195312 Z M 43.0625 53.707031 " fill-opacity="1" fill-rule="nonzero"/></svg>