<svg xmlns="http://www.w3.org/2000/svg" xmlns:xlink="http://www.w3.org/1999/xlink" width="220" zoomAndPan="magnify" viewBox="0 0 165 82.499998" height="110" preserveAspectRatio="xMidYMid meet" version="1.0"><defs><clipPath id="e1f307bfef"><path d="M 0.496094 0 L 164.503906 0 L 164.503906 82.003906 L 0.496094 82.003906 Z M 0.496094 0 " clip-rule="nonzero"/></clipPath><clipPath id="ede7533510"><path d="M 6.539062 25.691406 L 38 25.691406 L 38 56.257812 L 6.539062 56.257812 Z M 6.539062 25.691406 " clip-rule="nonzero"/></clipPath><clipPath id="2c67c00fd9"><path d="M 60 32 L 77 32 L 77 56.257812 L 60 56.257812 Z M 60 32 " clip-rule="nonzero"/></clipPath><clipPath id="0f491b998c"><path d="M 127 32 L 144 32 L 144 56.257812 L 127 56.257812 Z M 127 32 " clip-rule="nonzero"/></clipPath><clipPath id="3820ebdafb"><path d="M 152 28 L 158.617188 28 L 158.617188 35 L 152 35 Z M 152 28 " clip-rule="nonzero"/></clipPath></defs><g clip-path="url(#e1f307bfef)"><path fill="#ffffff" d="M 0.496094 0 L 164.503906 0 L 164.503906 82.003906 L 0.496094 82.003906 Z M 0.496094 0 " fill-opacity="1" fill-rule="nonzero"/></g><g clip-path="url(#ede7533510)"><path fill="#6d3e91" d="M 22.023438 25.691406 C 30.550781 25.691406 37.433594 32.554688 37.433594 41.0625 C 37.433594 49.566406 30.550781 56.433594 22.023438 56.433594 C 13.496094 56.433594 6.613281 49.566406 6.613281 41.0625 C 6.613281 32.554688 13.496094 25.691406 22.023438 25.691406 Z M 22.023438 25.691406 " fill-opacity="1" fill-rule="evenodd"/></g><path fill="#ffffff" d="M 22.199219 45.167969 C 22.199219 44.054688 23.082031 43.171875 24.199219 43.171875 L 31.667969 43.171875 C 32.785156 43.171875 33.667969 44.054688 33.667969 45.167969 C 33.667969 46.28125 32.785156 47.164062 31.667969 47.164062 L 24.199219 47.164062 C 23.082031 47.222656 22.199219 46.28125 22.199219 45.167969 Z M 22.199219 45.167969 " fill-opacity="1" fill-rule="nonzero"/><path fill="#ffffff" d="M 21.257812 41.355469 C 20.492188 42.117188 19.199219 42.117188 18.375 41.355469 L 13.082031 36.074219 C 12.316406 35.3125 12.316406 34.023438 13.082031 33.199219 C 13.847656 32.4375 15.140625 32.4375 15.964844 33.199219 L 21.257812 38.480469 C 22.082031 39.300781 22.082031 40.59375 21.257812 41.355469 Z M 21.257812 41.355469 " fill-opacity="1" fill-rule="nonzero"/><path fill="#ffffff" d="M 21.257812 38.539062 C 22.023438 39.300781 22.023438 40.59375 21.257812 41.414062 L 15.964844 46.695312 C 15.199219 47.457031 13.90625 47.457031 13.082031 46.695312 C 12.316406 45.929688 12.316406 44.640625 13.082031 43.820312 L 18.375 38.539062 C 19.199219 37.777344 20.492188 37.777344 21.257812 38.539062 Z M 21.257812 38.539062 " fill-opacity="1" fill-rule="nonzero"/><path fill="#383432" d="M 58.785156 41.472656 C 58.785156 47.222656 56.195312 50.15625 51.136719 50.15625 C 46.078125 50.15625 43.550781 47.222656 43.550781 41.472656 C 43.550781 35.664062 46.078125 32.789062 51.136719 32.789062 C 56.195312 32.789062 58.785156 35.664062 58.785156 41.472656 Z M 47.84375 41.472656 C 47.902344 44.699219 48.960938 46.339844 51.136719 46.339844 C 53.3125 46.339844 54.375 44.640625 54.375 41.296875 C 54.375 38.070312 53.3125 36.425781 51.136719 36.425781 C 48.902344 36.484375 47.84375 38.128906 47.84375 41.472656 Z M 47.84375 41.472656 " fill-opacity="1" fill-rule="nonzero"/><g clip-path="url(#2c67c00fd9)"><path fill="#383432" d="M 65.019531 54.203125 C 65.019531 55.609375 64.3125 56.316406 62.902344 56.316406 L 60.785156 56.316406 L 60.785156 40.300781 C 61.019531 35.3125 63.609375 32.847656 68.664062 32.847656 C 73.84375 32.847656 76.429688 35.664062 76.429688 41.296875 C 76.429688 46.988281 74.195312 49.921875 69.726562 50.097656 C 67.605469 50.097656 66.078125 49.214844 64.960938 47.515625 Z M 68.605469 46.28125 C 70.902344 46.28125 72.078125 44.699219 72.136719 41.472656 C 72.136719 38.070312 70.960938 36.425781 68.546875 36.425781 C 66.136719 36.425781 65.019531 38.128906 65.019531 41.472656 C 65.136719 44.699219 66.3125 46.28125 68.605469 46.28125 Z M 68.605469 46.28125 " fill-opacity="1" fill-rule="nonzero"/></g><path fill="#383432" d="M 85.898438 50.097656 C 80.839844 49.921875 78.3125 46.988281 78.3125 41.296875 C 78.3125 35.605469 80.898438 32.789062 85.957031 32.730469 C 91.253906 32.730469 93.78125 35.957031 93.488281 42.527344 L 82.664062 42.527344 C 82.839844 45.109375 83.957031 46.398438 86.015625 46.398438 C 87.015625 46.398438 87.898438 45.988281 88.722656 45.226562 C 89.074219 44.816406 89.605469 44.640625 90.132812 44.640625 L 93.25 44.640625 C 92.3125 48.160156 90.015625 50.097656 85.898438 50.097656 Z M 82.664062 39.59375 L 88.957031 39.59375 C 88.722656 37.367188 87.664062 36.25 85.839844 36.25 C 84.078125 36.191406 83.015625 37.367188 82.664062 39.59375 Z M 82.664062 39.59375 " fill-opacity="1" fill-rule="nonzero"/><path fill="#383432" d="M 107.542969 49.742188 C 106.132812 49.625 105.425781 48.980469 105.425781 47.632812 L 105.425781 39.066406 C 105.308594 37.308594 104.367188 36.484375 102.484375 36.484375 C 100.605469 36.484375 99.664062 37.367188 99.664062 39.066406 L 99.664062 49.742188 L 95.429688 49.742188 L 95.429688 39.886719 C 95.429688 35.136719 97.839844 32.730469 102.605469 32.730469 C 107.367188 32.730469 109.722656 35.078125 109.722656 39.886719 L 109.722656 49.742188 Z M 107.542969 49.742188 " fill-opacity="1" fill-rule="nonzero"/><path fill="#6d3e91" d="M 115.957031 37.367188 L 111.722656 37.367188 C 112.25 34.257812 114.425781 32.730469 118.25 32.730469 C 122.894531 32.730469 125.191406 34.257812 125.308594 37.367188 L 125.308594 43.054688 C 125.308594 47.691406 122.542969 49.742188 118.015625 50.039062 C 114.015625 50.332031 111.191406 48.511719 111.191406 44.816406 C 111.308594 40.828125 114.191406 39.710938 118.425781 39.300781 C 120.25 39.066406 121.132812 38.539062 121.132812 37.601562 C 121.015625 36.660156 120.132812 36.191406 118.425781 36.191406 C 116.957031 36.191406 116.132812 36.601562 115.957031 37.367188 Z M 121.25 42.878906 L 121.25 41.355469 C 120.25 41.765625 119.132812 42.117188 117.898438 42.351562 C 116.191406 42.644531 115.367188 43.46875 115.367188 44.699219 C 115.484375 46.046875 116.132812 46.636719 117.484375 46.636719 C 119.835938 46.636719 121.25 45.226562 121.25 42.878906 Z M 121.25 42.878906 " fill-opacity="1" fill-rule="nonzero"/><g clip-path="url(#0f491b998c)"><path fill="#6d3e91" d="M 131.601562 54.203125 C 131.601562 55.609375 130.894531 56.316406 129.484375 56.316406 L 127.367188 56.316406 L 127.367188 40.300781 C 127.601562 35.3125 130.191406 32.847656 135.246094 32.847656 C 140.425781 32.847656 143.011719 35.664062 143.011719 41.296875 C 143.011719 46.988281 140.777344 49.921875 136.308594 50.097656 C 134.1875 50.097656 132.660156 49.214844 131.542969 47.515625 L 131.542969 54.203125 Z M 135.1875 46.28125 C 137.484375 46.28125 138.660156 44.699219 138.71875 41.472656 C 138.71875 38.070312 137.542969 36.425781 135.128906 36.425781 C 132.71875 36.425781 131.601562 38.128906 131.601562 41.472656 C 131.71875 44.699219 132.894531 46.28125 135.1875 46.28125 Z M 135.1875 46.28125 " fill-opacity="1" fill-rule="nonzero"/></g><path fill="#6d3e91" d="M 147.1875 28.273438 C 148.601562 28.273438 149.246094 28.976562 149.1875 30.324219 L 149.1875 31.558594 L 144.953125 31.558594 L 144.953125 28.273438 Z M 147.1875 33.023438 C 148.539062 33.023438 149.1875 33.667969 149.1875 35.019531 L 149.1875 49.683594 L 144.953125 49.683594 L 144.953125 33.023438 Z M 147.1875 33.023438 " fill-opacity="1" fill-rule="nonzero"/><g clip-path="url(#3820ebdafb)"><path fill="#383432" d="M 158.480469 31.558594 C 158.480469 33.375 157.1875 34.84375 155.304688 34.84375 C 153.597656 34.84375 152.128906 33.375 152.128906 31.558594 C 152.128906 29.738281 153.597656 28.390625 155.304688 28.390625 C 157.128906 28.273438 158.480469 29.738281 158.480469 31.558594 Z M 153.070312 31.558594 C 153.070312 33.023438 154.128906 34.199219 155.421875 34.199219 C 156.714844 34.199219 157.773438 33.023438 157.773438 31.675781 C 157.773438 30.207031 156.835938 29.035156 155.421875 29.035156 C 153.953125 28.917969 153.070312 30.089844 153.070312 31.558594 Z M 154.894531 33.257812 L 154.246094 33.257812 L 154.246094 29.972656 C 154.480469 29.972656 154.894531 29.855469 155.421875 29.855469 C 155.953125 29.855469 156.1875 29.972656 156.480469 30.089844 C 156.597656 30.207031 156.714844 30.5 156.714844 30.738281 C 156.714844 31.148438 156.480469 31.382812 156.070312 31.5 C 156.304688 31.617188 156.597656 31.910156 156.597656 32.261719 C 156.714844 32.789062 156.714844 32.90625 156.835938 33.023438 L 156.070312 33.023438 C 155.953125 32.90625 155.953125 32.613281 155.835938 32.261719 C 155.835938 31.851562 155.597656 31.734375 155.1875 31.734375 L 154.777344 31.734375 L 154.777344 33.199219 L 154.894531 33.199219 Z M 154.894531 31.441406 L 155.304688 31.441406 C 155.714844 31.441406 155.953125 31.324219 155.953125 30.914062 C 155.953125 30.679688 155.714844 30.382812 155.304688 30.382812 C 155.1875 30.382812 155.070312 30.382812 154.894531 30.382812 Z M 154.894531 31.441406 " fill-opacity="1" fill-rule="nonzero"/></g></svg>