<svg xmlns="http://www.w3.org/2000/svg" xmlns:xlink="http://www.w3.org/1999/xlink" width="220" zoomAndPan="magnify" viewBox="0 0 165 82.499998" height="110" preserveAspectRatio="xMidYMid meet" version="1.0"><defs><clipPath id="00dfb9f2cc"><path d="M 0.496094 0 L 164.503906 0 L 164.503906 82.003906 L 0.496094 82.003906 Z M 0.496094 0 " clip-rule="nonzero"/></clipPath><clipPath id="a804baf668"><path d="M 55.875 32.597656 L 70 32.597656 L 70 49 L 55.875 49 Z M 55.875 32.597656 " clip-rule="nonzero"/></clipPath><clipPath id="b241276915"><path d="M 71 32.597656 L 86 32.597656 L 86 49 L 71 49 Z M 71 32.597656 " clip-rule="nonzero"/></clipPath><clipPath id="d9ec3a4336"><path d="M 88 32.597656 L 102 32.597656 L 102 49 L 88 49 Z M 88 32.597656 " clip-rule="nonzero"/></clipPath><clipPath id="dba4143f57"><path d="M 102 32.597656 L 116 32.597656 L 116 49.539062 L 102 49.539062 Z M 102 32.597656 " clip-rule="nonzero"/></clipPath><clipPath id="264bdd036c"><path d="M 116 33 L 128 33 L 128 49.539062 L 116 49.539062 Z M 116 33 " clip-rule="nonzero"/></clipPath><clipPath id="8989ea695c"><path d="M 128 36 L 142 36 L 142 49.539062 L 128 49.539062 Z M 128 36 " clip-rule="nonzero"/></clipPath><clipPath id="e5ab11ae43"><path d="M 144 36 L 156.597656 36 L 156.597656 49 L 144 49 Z M 144 36 " clip-rule="nonzero"/></clipPath><clipPath id="4b2392aa42"><path d="M 8.738281 22.371094 L 52.695312 22.371094 L 52.695312 59.632812 L 8.738281 59.632812 Z M 8.738281 22.371094 " clip-rule="nonzero"/></clipPath></defs><g clip-path="url(#00dfb9f2cc)"><path fill="#ffffff" d="M 0.496094 0 L 164.503906 0 L 164.503906 82.003906 L 0.496094 82.003906 Z M 0.496094 0 " fill-opacity="1" fill-rule="nonzero"/></g><g clip-path="url(#a804baf668)"><path fill="#231f20" d="M 69.375 38.578125 C 69.375 41.660156 67.359375 44.03125 63.652344 44.03125 L 60.679688 44.03125 L 60.679688 47.574219 C 60.679688 48.46875 60.199219 48.957031 59.304688 48.957031 L 57.246094 48.957031 C 56.351562 48.957031 55.875 48.46875 55.875 47.574219 L 55.875 34.234375 C 55.875 33.335938 56.351562 32.851562 57.246094 32.851562 L 63.652344 32.851562 C 67.382812 32.851562 69.375 35.496094 69.375 38.578125 Z M 64.570312 38.628906 C 64.570312 37.777344 63.972656 36.992188 63.152344 36.992188 L 60.679688 36.992188 L 60.679688 40.191406 L 63.152344 40.191406 C 63.542969 40.164062 63.910156 39.988281 64.171875 39.695312 C 64.4375 39.40625 64.578125 39.023438 64.570312 38.628906 Z M 64.570312 38.628906 " fill-opacity="1" fill-rule="nonzero"/></g><g clip-path="url(#b241276915)"><path fill="#231f20" d="M 71.179688 47.574219 L 71.179688 34.234375 C 71.179688 33.335938 71.664062 32.851562 72.554688 32.851562 L 74.613281 32.851562 C 75.503906 32.851562 75.984375 33.335938 75.984375 34.234375 L 75.984375 39.273438 L 80.675781 39.273438 L 80.675781 34.234375 C 80.675781 33.335938 81.144531 32.851562 82.050781 32.851562 L 84.109375 32.851562 C 85.003906 32.851562 85.480469 33.335938 85.480469 34.234375 L 85.480469 47.574219 C 85.480469 48.46875 85.003906 48.957031 84.109375 48.957031 L 82.050781 48.957031 C 81.15625 48.957031 80.675781 48.46875 80.675781 47.574219 L 80.675781 43.203125 L 75.984375 43.203125 L 75.984375 47.574219 C 75.984375 48.46875 75.503906 48.957031 74.613281 48.957031 L 72.554688 48.957031 C 71.664062 48.957031 71.179688 48.46875 71.179688 47.574219 Z M 71.179688 47.574219 " fill-opacity="1" fill-rule="nonzero"/></g><g clip-path="url(#d9ec3a4336)"><path fill="#231f20" d="M 101.773438 38.578125 C 101.773438 41.660156 99.757812 44.03125 96.050781 44.03125 L 93.078125 44.03125 L 93.078125 47.574219 C 93.078125 48.46875 92.597656 48.957031 91.703125 48.957031 L 89.644531 48.957031 C 88.757812 48.957031 88.273438 48.46875 88.273438 47.574219 L 88.273438 34.234375 C 88.273438 33.335938 88.757812 32.851562 89.644531 32.851562 L 96.050781 32.851562 C 99.785156 32.851562 101.773438 35.496094 101.773438 38.578125 Z M 96.96875 38.628906 C 96.96875 37.777344 96.375 36.992188 95.550781 36.992188 L 93.078125 36.992188 L 93.078125 40.191406 L 95.550781 40.191406 C 95.941406 40.167969 96.308594 39.988281 96.574219 39.699219 C 96.839844 39.40625 96.980469 39.023438 96.96875 38.628906 Z M 96.96875 38.628906 " fill-opacity="1" fill-rule="nonzero"/></g><g clip-path="url(#dba4143f57)"><path fill="#231f20" d="M 102.941406 45.527344 C 102.625 44.652344 103.082031 44.054688 103.949219 43.847656 L 105.253906 43.550781 C 106.054688 43.367188 106.464844 43.707031 106.945312 44.445312 C 107.425781 45.183594 108.203125 45.527344 109.304688 45.527344 C 110.402344 45.527344 111.179688 45.160156 111.179688 44.382812 C 111.179688 43.992188 110.972656 43.488281 109.828125 43.121094 L 108.023438 42.425781 C 107.246094 42.175781 103.351562 41.140625 103.308594 37.714844 C 103.308594 34.597656 105.914062 32.597656 109.417969 32.597656 C 111.890625 32.597656 113.625 33.589844 114.660156 35.425781 C 115.136719 36.257812 114.75 36.949219 113.855469 37.199219 L 112.621094 37.542969 C 111.84375 37.777344 111.40625 37.453125 110.835938 36.808594 C 110.664062 36.628906 110.457031 36.488281 110.230469 36.398438 C 110 36.308594 109.753906 36.265625 109.507812 36.28125 C 108.734375 36.28125 108 36.601562 108 37.289062 C 108 37.75 108.320312 38.167969 109.304688 38.507812 L 111.085938 39.132812 C 114.660156 40.375 115.78125 41.9375 115.847656 44.21875 C 115.847656 47.644531 112.785156 49.207031 109.308594 49.207031 C 106.148438 49.207031 103.855469 47.894531 102.941406 45.527344 Z M 102.941406 45.527344 " fill-opacity="1" fill-rule="nonzero"/></g><g clip-path="url(#264bdd036c)"><path fill="#231f20" d="M 118.34375 44.769531 L 118.34375 40.285156 L 117.378906 40.285156 C 117.289062 40.292969 117.195312 40.28125 117.105469 40.25 C 117.019531 40.21875 116.941406 40.167969 116.875 40.101562 C 116.808594 40.035156 116.761719 39.957031 116.730469 39.871094 C 116.695312 39.78125 116.6875 39.6875 116.695312 39.59375 L 116.695312 37.542969 C 116.6875 37.453125 116.695312 37.359375 116.730469 37.269531 C 116.761719 37.183594 116.808594 37.101562 116.875 37.039062 C 116.941406 36.972656 117.019531 36.921875 117.105469 36.890625 C 117.195312 36.859375 117.289062 36.847656 117.378906 36.855469 L 118.84375 36.855469 L 119.238281 34.714844 C 119.261719 34.472656 119.382812 34.25 119.570312 34.09375 C 119.757812 33.9375 120 33.863281 120.242188 33.886719 L 122.03125 33.886719 C 122.15625 33.875 122.28125 33.886719 122.398438 33.929688 C 122.515625 33.96875 122.621094 34.039062 122.707031 34.125 C 122.796875 34.214844 122.863281 34.324219 122.902344 34.441406 C 122.941406 34.558594 122.957031 34.683594 122.941406 34.808594 L 122.941406 36.855469 L 125.117188 36.855469 C 125.207031 36.847656 125.300781 36.859375 125.386719 36.890625 C 125.476562 36.921875 125.554688 36.972656 125.621094 37.039062 C 125.683594 37.101562 125.734375 37.183594 125.765625 37.269531 C 125.796875 37.359375 125.808594 37.453125 125.800781 37.542969 L 125.800781 39.59375 C 125.808594 39.6875 125.800781 39.78125 125.769531 39.871094 C 125.738281 39.960938 125.6875 40.039062 125.621094 40.105469 C 125.554688 40.171875 125.476562 40.222656 125.390625 40.253906 C 125.300781 40.285156 125.207031 40.296875 125.117188 40.289062 L 122.941406 40.289062 L 122.941406 44.816406 C 122.941406 45.347656 123.191406 45.554688 123.515625 45.554688 C 123.996094 45.554688 124.152344 45.070312 124.152344 44.632812 C 124.15625 44.511719 124.148438 44.386719 124.128906 44.265625 C 124.085938 43.78125 124.242188 43.527344 124.703125 43.527344 L 126.398438 43.527344 C 126.566406 43.511719 126.734375 43.550781 126.875 43.644531 C 127.015625 43.734375 127.121094 43.875 127.171875 44.035156 C 127.28125 44.339844 127.34375 44.65625 127.355469 44.980469 C 127.355469 48.359375 124.976562 49.210938 122.917969 49.210938 C 120.769531 49.207031 118.34375 48.3125 118.34375 44.769531 Z M 118.34375 44.769531 " fill-opacity="1" fill-rule="nonzero"/></g><g clip-path="url(#8989ea695c)"><path fill="#231f20" d="M 128.027344 42.910156 C 128.027344 39.25 130.476562 36.605469 133.679688 36.605469 C 135.234375 36.605469 136.472656 37.273438 137.113281 38.375 L 137.113281 38.242188 C 137.113281 37.34375 137.59375 36.859375 138.484375 36.859375 L 140.449219 36.859375 C 141.34375 36.859375 141.824219 37.34375 141.824219 38.242188 L 141.824219 47.574219 C 141.824219 48.46875 141.34375 48.957031 140.449219 48.957031 L 138.484375 48.957031 C 137.59375 48.957031 137.113281 48.46875 137.113281 47.574219 L 137.113281 47.460938 C 136.472656 48.539062 135.234375 49.207031 133.679688 49.207031 C 130.46875 49.207031 128.027344 46.5625 128.027344 42.910156 Z M 137.183594 42.910156 C 137.183594 41.390625 136.335938 40.21875 134.964844 40.21875 C 133.589844 40.21875 132.746094 41.390625 132.746094 42.910156 C 132.746094 44.429688 133.589844 45.601562 134.964844 45.601562 C 136.335938 45.601562 137.183594 44.421875 137.183594 42.910156 Z M 137.183594 42.910156 " fill-opacity="1" fill-rule="nonzero"/></g><g clip-path="url(#e5ab11ae43)"><path fill="#231f20" d="M 144.0625 47.574219 L 144.0625 38.238281 C 144.0625 37.339844 144.542969 36.855469 145.4375 36.855469 L 147.402344 36.855469 C 148.296875 36.855469 148.777344 37.339844 148.777344 38.238281 L 148.777344 38.351562 C 149.4375 37.269531 150.488281 36.601562 152.117188 36.601562 C 155.84375 36.601562 156.300781 39.890625 156.300781 41.871094 L 156.300781 47.574219 C 156.300781 48.46875 155.824219 48.957031 154.929688 48.957031 L 152.960938 48.957031 C 152.070312 48.957031 151.589844 48.46875 151.589844 47.574219 L 151.589844 42.328125 C 151.589844 41.386719 151.382812 40.285156 150.171875 40.285156 C 148.960938 40.285156 148.777344 41.390625 148.777344 42.328125 L 148.777344 47.574219 C 148.777344 48.46875 148.296875 48.957031 147.402344 48.957031 L 145.4375 48.957031 C 144.542969 48.957031 144.0625 48.46875 144.0625 47.574219 Z M 144.0625 47.574219 " fill-opacity="1" fill-rule="nonzero"/></g><path fill="#231f20" d="M 17.917969 56.738281 L 17.769531 57.089844 C 17.679688 57.292969 17.554688 57.476562 17.398438 57.628906 C 17.238281 57.78125 17.050781 57.902344 16.847656 57.984375 C 16.644531 58.066406 16.425781 58.105469 16.203125 58.101562 C 15.984375 58.097656 15.765625 58.054688 15.5625 57.964844 C 15.359375 57.878906 15.175781 57.753906 15.023438 57.59375 C 14.871094 57.4375 14.75 57.25 14.667969 57.046875 C 14.585938 56.84375 14.546875 56.625 14.550781 56.402344 C 14.550781 56.183594 14.597656 55.96875 14.6875 55.765625 L 15.554688 53.746094 C 16.234375 54.824219 17.027344 55.828125 17.917969 56.738281 Z M 17.917969 56.738281 " fill-opacity="1" fill-rule="nonzero"/><path fill="#ffffff" d="M 18.429688 47.464844 L 18.304688 47.367188 L 18.296875 47.390625 C 18.34375 47.410156 18.386719 47.433594 18.429688 47.464844 Z M 18.429688 47.464844 " fill-opacity="1" fill-rule="nonzero"/><g clip-path="url(#4b2392aa42)"><path fill="#516cb3" d="M 48.453125 26.683594 C 42.824219 20.140625 38.5 22.6875 37.15625 23.792969 C 37.59375 24.050781 38.015625 24.34375 38.414062 24.664062 C 38.476562 24.710938 38.527344 24.769531 38.5625 24.835938 C 38.601562 24.902344 38.628906 24.976562 38.636719 25.054688 C 38.644531 25.128906 38.640625 25.207031 38.617188 25.28125 C 38.597656 25.355469 38.558594 25.425781 38.511719 25.488281 C 38.464844 25.546875 38.402344 25.597656 38.335938 25.632812 C 38.265625 25.667969 38.191406 25.691406 38.117188 25.699219 C 38.039062 25.707031 37.960938 25.699219 37.886719 25.675781 C 37.8125 25.652344 37.746094 25.617188 37.683594 25.566406 C 37.289062 25.246094 36.867188 24.960938 36.421875 24.707031 C 34.660156 23.742188 32.679688 23.242188 30.667969 23.257812 C 28.65625 23.273438 26.683594 23.800781 24.933594 24.792969 C 24.542969 25.023438 24.171875 25.28125 23.816406 25.566406 C 23.757812 25.617188 23.6875 25.652344 23.617188 25.675781 C 23.542969 25.699219 23.464844 25.707031 23.386719 25.699219 C 23.308594 25.691406 23.234375 25.667969 23.167969 25.632812 C 23.097656 25.597656 23.039062 25.546875 22.992188 25.488281 C 22.941406 25.425781 22.90625 25.355469 22.882812 25.28125 C 22.863281 25.207031 22.855469 25.128906 22.867188 25.054688 C 22.875 24.976562 22.898438 24.902344 22.9375 24.835938 C 22.976562 24.769531 23.027344 24.710938 23.089844 24.664062 C 23.449219 24.371094 23.828125 24.101562 24.226562 23.859375 C 22.980469 22.800781 18.597656 19.988281 12.839844 26.675781 C 6.902344 33.578125 8.089844 42.699219 12.109375 46.726562 C 12.226562 45.839844 12.605469 45.011719 13.199219 44.339844 C 13.550781 43.953125 13.980469 43.644531 14.460938 43.433594 C 14.941406 43.222656 15.460938 43.113281 15.984375 43.117188 C 16.640625 43.121094 17.289062 43.277344 17.878906 43.570312 C 18.460938 43.863281 18.988281 44.253906 19.433594 44.730469 L 19.851562 43.765625 C 17.992188 42.53125 16.636719 40.664062 16.035156 38.515625 C 15.4375 36.363281 15.628906 34.066406 16.582031 32.046875 C 17.535156 30.027344 19.183594 28.414062 21.226562 27.503906 C 23.265625 26.59375 25.570312 26.449219 27.710938 27.09375 C 29.851562 27.734375 31.691406 29.125 32.894531 31.007812 C 34.09375 32.894531 34.578125 35.144531 34.257812 37.355469 C 33.933594 39.566406 32.828125 41.585938 31.136719 43.050781 C 29.449219 44.511719 27.289062 45.320312 25.054688 45.328125 L 23.019531 51.125 L 23.1875 51.25 L 24.996094 52.667969 C 25.054688 52.714844 25.105469 52.773438 25.144531 52.839844 C 25.179688 52.90625 25.203125 52.980469 25.214844 53.054688 C 25.222656 53.128906 25.21875 53.207031 25.195312 53.28125 C 25.175781 53.355469 25.140625 53.421875 25.09375 53.484375 C 25.046875 53.542969 24.988281 53.59375 24.921875 53.628906 C 24.855469 53.667969 24.78125 53.691406 24.703125 53.699219 C 24.628906 53.710938 24.550781 53.703125 24.480469 53.683594 C 24.40625 53.660156 24.335938 53.625 24.277344 53.578125 L 22.46875 52.160156 L 20.433594 50.542969 L 17.703125 48.371094 C 17.703125 48.371094 17.703125 48.371094 17.703125 48.363281 L 16.621094 47.5 C 16.5625 47.453125 16.511719 47.394531 16.476562 47.328125 C 16.4375 47.261719 16.414062 47.1875 16.40625 47.113281 C 16.398438 47.035156 16.40625 46.960938 16.425781 46.886719 C 16.449219 46.8125 16.484375 46.746094 16.53125 46.6875 C 16.578125 46.625 16.636719 46.578125 16.703125 46.539062 C 16.769531 46.503906 16.84375 46.480469 16.917969 46.472656 C 16.996094 46.460938 17.070312 46.46875 17.144531 46.492188 C 17.21875 46.511719 17.285156 46.546875 17.347656 46.59375 L 18.3125 47.363281 L 18.8125 46.21875 L 19 45.78125 C 18.816406 45.652344 17.851562 44.851562 17.382812 44.625 C 16.953125 44.410156 16.476562 44.296875 15.996094 44.292969 C 15.636719 44.289062 15.277344 44.363281 14.945312 44.507812 C 14.609375 44.65625 14.3125 44.871094 14.070312 45.140625 C 13.566406 45.695312 13.21875 46.527344 13.214844 47.652344 C 13.230469 48.421875 13.363281 49.183594 13.617188 49.910156 C 13.632812 49.957031 13.640625 50.007812 13.644531 50.058594 C 14.085938 51.171875 14.625 52.246094 15.261719 53.261719 C 15.363281 53.429688 15.464844 53.59375 15.570312 53.757812 C 16.246094 54.839844 17.039062 55.839844 17.933594 56.75 C 21.183594 59.996094 24.382812 59.898438 26.722656 58.988281 C 32.019531 56.945312 36.726562 44.808594 37.019531 43.960938 C 37.601562 42.265625 38.167969 40.59375 38.261719 40.316406 C 38.308594 40.171875 38.414062 40.050781 38.550781 39.984375 C 38.691406 39.914062 38.847656 39.902344 38.996094 39.953125 C 39.140625 40 39.261719 40.105469 39.332031 40.242188 C 39.398438 40.378906 39.410156 40.539062 39.363281 40.683594 C 39.285156 40.917969 38.882812 42.101562 38.414062 43.46875 C 38.582031 43.390625 38.75 43.304688 38.910156 43.207031 C 39.703125 42.738281 40.382812 42.105469 40.902344 41.347656 C 41.375 40.675781 41.664062 39.894531 41.746094 39.078125 C 41.804688 38.378906 41.824219 37.511719 41.824219 36.628906 C 41.824219 34.652344 41.71875 32.609375 41.691406 32.132812 L 41.691406 32.027344 C 41.6875 31.953125 41.699219 31.875 41.722656 31.804688 C 41.75 31.730469 41.789062 31.664062 41.839844 31.609375 C 41.890625 31.550781 41.949219 31.503906 42.019531 31.472656 C 42.089844 31.4375 42.164062 31.417969 42.238281 31.414062 C 42.316406 31.410156 42.390625 31.421875 42.464844 31.445312 C 42.535156 31.472656 42.601562 31.507812 42.660156 31.558594 C 42.71875 31.609375 42.761719 31.671875 42.796875 31.742188 C 42.828125 31.808594 42.847656 31.882812 42.855469 31.960938 C 42.855469 31.960938 42.992188 34.328125 42.992188 36.628906 C 42.992188 37.53125 42.972656 38.417969 42.910156 39.167969 C 42.808594 40.1875 42.441406 41.160156 41.851562 41.996094 C 41.234375 42.894531 40.429688 43.644531 39.488281 44.199219 L 39.289062 44.3125 C 39.84375 46.796875 42.546875 49.730469 46.355469 48.515625 C 52.40625 46.589844 55.621094 35.019531 48.453125 26.683594 Z M 48.453125 26.683594 " fill-opacity="1" fill-rule="nonzero"/></g><path fill="#231f20" d="M 37.058594 35.996094 C 37.152344 35.859375 37.277344 35.746094 37.425781 35.667969 C 37.570312 35.589844 37.734375 35.542969 37.902344 35.542969 L 37.910156 35.542969 C 38.074219 35.542969 38.238281 35.582031 38.382812 35.660156 C 38.535156 35.734375 38.664062 35.84375 38.761719 35.976562 C 38.804688 36.046875 38.859375 36.105469 38.921875 36.148438 C 38.988281 36.195312 39.0625 36.226562 39.136719 36.242188 C 39.214844 36.257812 39.296875 36.257812 39.375 36.242188 C 39.449219 36.226562 39.523438 36.195312 39.589844 36.148438 C 39.652344 36.105469 39.707031 36.046875 39.75 35.980469 C 39.792969 35.914062 39.820312 35.835938 39.832031 35.757812 C 39.84375 35.679688 39.835938 35.601562 39.816406 35.527344 C 39.796875 35.449219 39.761719 35.378906 39.710938 35.316406 C 39.507812 35.03125 39.238281 34.796875 38.929688 34.636719 C 38.617188 34.472656 38.269531 34.386719 37.917969 34.386719 L 37.898438 34.386719 C 37.542969 34.394531 37.195312 34.484375 36.882812 34.652344 C 36.570312 34.820312 36.300781 35.0625 36.101562 35.355469 C 36.058594 35.417969 36.027344 35.488281 36.007812 35.5625 C 35.992188 35.640625 35.992188 35.71875 36.003906 35.792969 C 36.019531 35.871094 36.046875 35.941406 36.089844 36.007812 C 36.132812 36.070312 36.1875 36.128906 36.253906 36.171875 C 36.316406 36.214844 36.390625 36.242188 36.464844 36.257812 C 36.542969 36.273438 36.621094 36.273438 36.695312 36.257812 C 36.773438 36.242188 36.84375 36.210938 36.90625 36.164062 C 36.972656 36.121094 37.023438 36.066406 37.066406 36 Z M 37.058594 35.996094 " fill-opacity="1" fill-rule="nonzero"/><path fill="#ffffff" d="M 27.390625 30.523438 C 28.472656 30.988281 29.394531 31.765625 30.035156 32.757812 C 30.679688 33.746094 31.011719 34.902344 30.996094 36.082031 C 30.976562 37.257812 30.613281 38.40625 29.941406 39.378906 C 29.273438 40.347656 28.332031 41.097656 27.234375 41.535156 C 26.136719 41.972656 24.9375 42.074219 23.78125 41.828125 C 22.628906 41.585938 21.570312 41.003906 20.746094 40.160156 C 19.925781 39.316406 19.371094 38.246094 19.152344 37.085938 C 18.9375 35.929688 19.070312 34.730469 19.535156 33.648438 C 19.84375 32.925781 20.292969 32.273438 20.855469 31.726562 C 21.417969 31.179688 22.085938 30.75 22.8125 30.457031 C 23.542969 30.167969 24.324219 30.023438 25.109375 30.035156 C 25.894531 30.046875 26.667969 30.210938 27.390625 30.523438 Z M 27.886719 37.203125 C 28.132812 36.636719 28.203125 36.007812 28.089844 35.398438 C 27.976562 34.792969 27.6875 34.230469 27.253906 33.789062 C 26.820312 33.34375 26.269531 33.039062 25.660156 32.910156 C 25.054688 32.78125 24.425781 32.835938 23.851562 33.066406 C 23.273438 33.292969 22.78125 33.6875 22.429688 34.199219 C 22.078125 34.707031 21.886719 35.308594 21.878906 35.925781 C 21.871094 36.546875 22.046875 37.152344 22.382812 37.671875 C 22.71875 38.191406 23.203125 38.597656 23.773438 38.84375 C 24.152344 39.003906 24.558594 39.09375 24.96875 39.101562 C 25.382812 39.105469 25.792969 39.03125 26.175781 38.878906 C 26.558594 38.726562 26.90625 38.5 27.203125 38.210938 C 27.496094 37.925781 27.734375 37.582031 27.894531 37.203125 Z M 27.886719 37.203125 " fill-opacity="1" fill-rule="nonzero"/><path fill="#231f20" d="M 26.253906 33.097656 C 26.824219 33.339844 27.308594 33.75 27.644531 34.265625 C 27.980469 34.785156 28.15625 35.394531 28.148438 36.011719 C 28.140625 36.628906 27.949219 37.230469 27.597656 37.742188 C 27.246094 38.25 26.753906 38.644531 26.175781 38.875 C 25.601562 39.101562 24.972656 39.15625 24.367188 39.027344 C 23.761719 38.898438 23.207031 38.59375 22.773438 38.148438 C 22.34375 37.707031 22.050781 37.144531 21.9375 36.539062 C 21.824219 35.929688 21.894531 35.300781 22.140625 34.734375 C 22.300781 34.355469 22.539062 34.015625 22.832031 33.726562 C 23.125 33.441406 23.476562 33.214844 23.859375 33.0625 C 24.238281 32.910156 24.648438 32.835938 25.058594 32.839844 C 25.472656 32.847656 25.878906 32.933594 26.253906 33.097656 Z M 26.253906 33.097656 " fill-opacity="1" fill-rule="nonzero"/><path fill="#000000" d="M 28.714844 27.445312 C 26.574219 26.523438 24.164062 26.433594 21.960938 27.195312 C 19.757812 27.957031 17.921875 29.511719 16.808594 31.558594 C 15.699219 33.605469 15.394531 35.992188 15.957031 38.253906 C 16.519531 40.511719 17.910156 42.476562 19.851562 43.765625 L 18.796875 46.21875 L 18.300781 47.363281 L 21.023438 49.53125 L 22.9375 45.089844 C 23.632812 45.25 24.34375 45.332031 25.054688 45.328125 C 27.203125 45.324219 29.28125 44.578125 30.945312 43.21875 C 32.605469 41.863281 33.75 39.972656 34.179688 37.871094 C 34.609375 35.769531 34.300781 33.585938 33.304688 31.6875 C 32.308594 29.785156 30.6875 28.285156 28.714844 27.441406 Z M 30.519531 38.363281 C 30.050781 39.445312 29.273438 40.367188 28.28125 41.007812 C 27.289062 41.648438 26.132812 41.980469 24.949219 41.964844 C 23.769531 41.945312 22.621094 41.582031 21.648438 40.914062 C 20.675781 40.246094 19.925781 39.304688 19.488281 38.207031 C 19.050781 37.113281 18.949219 35.914062 19.195312 34.761719 C 19.441406 33.609375 20.023438 32.554688 20.867188 31.730469 C 21.714844 30.910156 22.785156 30.355469 23.945312 30.140625 C 25.105469 29.925781 26.304688 30.058594 27.390625 30.523438 C 28.113281 30.832031 28.765625 31.28125 29.3125 31.839844 C 29.859375 32.402344 30.292969 33.066406 30.582031 33.796875 C 30.875 34.523438 31.015625 35.304688 31.007812 36.085938 C 30.996094 36.871094 30.828125 37.644531 30.519531 38.363281 Z M 30.519531 38.363281 " fill-opacity="1" fill-rule="nonzero"/></svg>