<svg xmlns="http://www.w3.org/2000/svg" xmlns:xlink="http://www.w3.org/1999/xlink" width="220" zoomAndPan="magnify" viewBox="0 0 165 82.499998" height="110" preserveAspectRatio="xMidYMid meet" version="1.0"><defs><clipPath id="id1"><path d="M 0.496094 0 L 164.503906 0 L 164.503906 82.003906 L 0.496094 82.003906 Z M 0.496094 0 " clip-rule="nonzero"/></clipPath><clipPath id="id2"><path d="M 8.699219 28 L 47.914062 28 L 47.914062 65.398438 L 8.699219 65.398438 Z M 8.699219 28 " clip-rule="nonzero"/></clipPath><clipPath id="id3"><path d="M 44.585938 34.238281 C 45.3125 34.0625 45.960938 34.125 46.613281 34.179688 C 44.796875 34.839844 44.503906 35.332031 46.234375 35.605469 C 45.105469 35.855469 44.535156 36.453125 44.789062 37.558594 C 43.386719 37.160156 43.71875 37.78125 43.949219 38.371094 C 45.074219 41.214844 45.085938 42.363281 44.644531 42.800781 C 43.355469 44.085938 42.753906 47.125 43.75 48.800781 C 45.097656 51.070312 46.074219 53.519531 47.074219 55.933594 C 47.351562 56.605469 47.398438 57.289062 46.929688 57.855469 C 43.738281 61.734375 39.554688 62.335938 36.691406 59.925781 C 34.808594 58.339844 33.71875 58.003906 32.296875 58.265625 C 31.296875 58.449219 30.398438 58.074219 29.546875 57.710938 C 28.488281 57.257812 27.765625 57.8125 27.582031 59.050781 C 26.964844 58.917969 26.472656 59.15625 25.960938 59.34375 C 26.457031 59.792969 26.488281 60.714844 26.628906 61.527344 C 24.847656 61.496094 23.914062 61.277344 23.386719 60.972656 C 23.472656 62.03125 22.894531 63.152344 22 64.320312 C 21.1875 63.453125 20.734375 62.539062 20.351562 61.613281 C 19.777344 62.75 19.507812 64.042969 19.253906 65.339844 C 17.527344 63.140625 16.625 61.027344 16.535156 58.992188 C 15.988281 59.738281 15.175781 60.300781 14.308594 60.828125 C 14.835938 59.675781 14.636719 58.691406 13.929688 57.796875 C 13.339844 57.050781 13.300781 56.035156 13.324219 55.003906 C 12.730469 55.402344 12.25 55.992188 11.820312 56.664062 C 11.859375 55.285156 11.582031 53.988281 11.011719 52.671875 C 10.339844 51.136719 10.613281 49.628906 11.183594 48.214844 C 10.492188 48.8125 9.761719 49.171875 9.015625 49.441406 C 9.65625 47.0625 10.703125 45.464844 12.050781 44.460938 C 10.75 44.347656 9.828125 43.773438 9.015625 43.0625 C 9.84375 43.34375 10.546875 42.980469 11.125 42.304688 C 11.566406 41.789062 12.09375 41.472656 12.660156 41.199219 C 11.242188 41.402344 9.949219 41.25 8.695312 40.964844 C 10.101562 40.289062 10.714844 39.214844 11.269531 38.109375 C 11.84375 36.96875 13.132812 35.9375 14.796875 34.964844 C 14.199219 34.777344 13.792969 34.441406 13.410156 34.089844 C 14.675781 33.789062 15.859375 33.027344 17.023438 32.023438 C 18.984375 30.335938 21.753906 29.125 24.371094 28.324219 L 38.628906 30.480469 Z M 44.585938 34.238281 " clip-rule="nonzero"/></clipPath><clipPath id="id4"><path d="M 16 28 L 47.914062 28 L 47.914062 60 L 16 60 Z M 16 28 " clip-rule="nonzero"/></clipPath><clipPath id="id5"><path d="M 44.585938 34.238281 C 45.3125 34.0625 45.960938 34.125 46.613281 34.179688 C 44.796875 34.839844 44.503906 35.332031 46.234375 35.605469 C 45.105469 35.855469 44.535156 36.453125 44.789062 37.558594 C 43.386719 37.160156 43.71875 37.78125 43.949219 38.371094 C 45.074219 41.214844 45.085938 42.363281 44.644531 42.800781 C 43.355469 44.085938 42.753906 47.125 43.75 48.800781 C 45.097656 51.070312 46.074219 53.519531 47.074219 55.933594 C 47.351562 56.605469 47.398438 57.289062 46.929688 57.855469 C 43.738281 61.734375 39.554688 62.335938 36.691406 59.925781 C 34.808594 58.339844 33.71875 58.003906 32.296875 58.265625 C 31.296875 58.449219 30.398438 58.074219 29.546875 57.710938 C 28.488281 57.257812 27.765625 57.8125 27.582031 59.050781 C 26.964844 58.917969 26.472656 59.15625 25.960938 59.34375 C 26.457031 59.792969 26.488281 60.714844 26.628906 61.527344 C 24.847656 61.496094 23.914062 61.277344 23.386719 60.972656 C 23.472656 62.03125 22.894531 63.152344 22 64.320312 C 21.1875 63.453125 20.734375 62.539062 20.351562 61.613281 C 19.777344 62.75 19.507812 64.042969 19.253906 65.339844 C 17.527344 63.140625 16.625 61.027344 16.535156 58.992188 C 15.988281 59.738281 15.175781 60.300781 14.308594 60.828125 C 14.835938 59.675781 14.636719 58.691406 13.929688 57.796875 C 13.339844 57.050781 13.300781 56.035156 13.324219 55.003906 C 12.730469 55.402344 12.25 55.992188 11.820312 56.664062 C 11.859375 55.285156 11.582031 53.988281 11.011719 52.671875 C 10.339844 51.136719 10.613281 49.628906 11.183594 48.214844 C 10.492188 48.8125 9.761719 49.171875 9.015625 49.441406 C 9.65625 47.0625 10.703125 45.464844 12.050781 44.460938 C 10.75 44.347656 9.828125 43.773438 9.015625 43.0625 C 9.84375 43.34375 10.546875 42.980469 11.125 42.304688 C 11.566406 41.789062 12.09375 41.472656 12.660156 41.199219 C 11.242188 41.402344 9.949219 41.25 8.695312 40.964844 C 10.101562 40.289062 10.714844 39.214844 11.269531 38.109375 C 11.84375 36.96875 13.132812 35.9375 14.796875 34.964844 C 14.199219 34.777344 13.792969 34.441406 13.410156 34.089844 C 14.675781 33.789062 15.859375 33.027344 17.023438 32.023438 C 18.984375 30.335938 21.753906 29.125 24.371094 28.324219 L 38.628906 30.480469 Z M 44.585938 34.238281 " clip-rule="nonzero"/></clipPath><clipPath id="id6"><path d="M 43 55 L 47.914062 55 L 47.914062 60 L 43 60 Z M 43 55 " clip-rule="nonzero"/></clipPath><clipPath id="id7"><path d="M 44.585938 34.238281 C 45.3125 34.0625 45.960938 34.125 46.613281 34.179688 C 44.796875 34.839844 44.503906 35.332031 46.234375 35.605469 C 45.105469 35.855469 44.535156 36.453125 44.789062 37.558594 C 43.386719 37.160156 43.71875 37.78125 43.949219 38.371094 C 45.074219 41.214844 45.085938 42.363281 44.644531 42.800781 C 43.355469 44.085938 42.753906 47.125 43.75 48.800781 C 45.097656 51.070312 46.074219 53.519531 47.074219 55.933594 C 47.351562 56.605469 47.398438 57.289062 46.929688 57.855469 C 43.738281 61.734375 39.554688 62.335938 36.691406 59.925781 C 34.808594 58.339844 33.71875 58.003906 32.296875 58.265625 C 31.296875 58.449219 30.398438 58.074219 29.546875 57.710938 C 28.488281 57.257812 27.765625 57.8125 27.582031 59.050781 C 26.964844 58.917969 26.472656 59.15625 25.960938 59.34375 C 26.457031 59.792969 26.488281 60.714844 26.628906 61.527344 C 24.847656 61.496094 23.914062 61.277344 23.386719 60.972656 C 23.472656 62.03125 22.894531 63.152344 22 64.320312 C 21.1875 63.453125 20.734375 62.539062 20.351562 61.613281 C 19.777344 62.75 19.507812 64.042969 19.253906 65.339844 C 17.527344 63.140625 16.625 61.027344 16.535156 58.992188 C 15.988281 59.738281 15.175781 60.300781 14.308594 60.828125 C 14.835938 59.675781 14.636719 58.691406 13.929688 57.796875 C 13.339844 57.050781 13.300781 56.035156 13.324219 55.003906 C 12.730469 55.402344 12.25 55.992188 11.820312 56.664062 C 11.859375 55.285156 11.582031 53.988281 11.011719 52.671875 C 10.339844 51.136719 10.613281 49.628906 11.183594 48.214844 C 10.492188 48.8125 9.761719 49.171875 9.015625 49.441406 C 9.65625 47.0625 10.703125 45.464844 12.050781 44.460938 C 10.75 44.347656 9.828125 43.773438 9.015625 43.0625 C 9.84375 43.34375 10.546875 42.980469 11.125 42.304688 C 11.566406 41.789062 12.09375 41.472656 12.660156 41.199219 C 11.242188 41.402344 9.949219 41.25 8.695312 40.964844 C 10.101562 40.289062 10.714844 39.214844 11.269531 38.109375 C 11.84375 36.96875 13.132812 35.9375 14.796875 34.964844 C 14.199219 34.777344 13.792969 34.441406 13.410156 34.089844 C 14.675781 33.789062 15.859375 33.027344 17.023438 32.023438 C 18.984375 30.335938 21.753906 29.125 24.371094 28.324219 L 38.628906 30.480469 Z M 44.585938 34.238281 " clip-rule="nonzero"/></clipPath><clipPath id="id8"><path d="M 18 16.941406 L 51 16.941406 L 51 39 L 18 39 Z M 18 16.941406 " clip-rule="nonzero"/></clipPath><clipPath id="id9"><path d="M 142 39 L 156.300781 39 L 156.300781 57 L 142 57 Z M 142 39 " clip-rule="nonzero"/></clipPath></defs><g clip-path="url(#id1)"><path fill="rgb(100%, 100%, 100%)" d="M 0.496094 0 L 164.503906 0 L 164.503906 171.460938 L 0.496094 171.460938 Z M 0.496094 0 " fill-opacity="1" fill-rule="nonzero"/><path fill="rgb(100%, 100%, 100%)" d="M 0.496094 0 L 164.503906 0 L 164.503906 82.003906 L 0.496094 82.003906 Z M 0.496094 0 " fill-opacity="1" fill-rule="nonzero"/><path fill="rgb(100%, 100%, 100%)" d="M 0.496094 0 L 164.503906 0 L 164.503906 82.003906 L 0.496094 82.003906 Z M 0.496094 0 " fill-opacity="1" fill-rule="nonzero"/><path fill="rgb(100%, 100%, 100%)" d="M 0.496094 0 L 164.503906 0 L 164.503906 82.003906 L 0.496094 82.003906 Z M 0.496094 0 " fill-opacity="1" fill-rule="nonzero"/></g><g clip-path="url(#id2)"><g clip-path="url(#id3)"><path fill="rgb(84.309387%, 84.309387%, 84.309387%)" d="M -3.738281 14.753906 L 59.136719 14.753906 L 59.136719 72.125 L -3.738281 72.125 Z M -3.738281 14.753906 " fill-opacity="1" fill-rule="nonzero"/></g></g><g clip-path="url(#id4)"><g clip-path="url(#id5)"><path fill="rgb(23.139954%, 23.139954%, 23.139954%)" d="M 22.898438 37.585938 C 20.964844 37.941406 20.25 39.039062 19.863281 40.324219 C 19.566406 41.304688 19.042969 41.8125 18.503906 42.390625 C 17.863281 43.074219 17.46875 44.015625 17.230469 45.011719 C 18.195312 43.957031 19.4375 43.695312 20.789062 43.757812 C 20.558594 44.769531 19.722656 45.515625 18.589844 46.058594 C 17.664062 46.503906 17.125 47.023438 16.59375 47.574219 C 17.746094 48.265625 19.445312 48.457031 21.480469 48.332031 C 21.335938 49.285156 20.078125 50.214844 18.242188 51.128906 C 18.792969 51.332031 21.050781 51.390625 24.375 51.359375 C 23.496094 51.714844 22.984375 52.273438 22.753906 52.960938 C 22.304688 54.300781 21.304688 55.0625 19.890625 55.496094 C 21.160156 56.113281 22.742188 56.105469 24.429688 55.875 C 24.3125 56.949219 23.972656 58.050781 23.507812 59.167969 C 24.191406 58.710938 24.710938 58.113281 25.097656 57.390625 C 25.523438 56.585938 25.976562 56.621094 26.515625 57.476562 C 26.851562 58.015625 27.363281 58.492188 28.074219 58.933594 L 31.214844 59.003906 C 27.75 54.507812 30.910156 48.917969 37.300781 49.015625 C 39.253906 49.046875 40.820312 48.480469 40.96875 46.472656 C 41.085938 44.867188 41.050781 41.78125 40.546875 40.761719 C 40.152344 39.96875 40.402344 39.523438 40.527344 38.75 C 40.710938 37.589844 39.632812 36.085938 38.285156 34.132812 C 37.519531 33.027344 38.511719 33.320312 39.527344 34.175781 C 39.410156 33.574219 39.171875 32.972656 38.863281 32.371094 C 38.21875 31.121094 40.371094 32.382812 40.917969 35.75 C 41.117188 36.984375 41.230469 37.644531 41.726562 38.371094 C 42.347656 39.289062 42.542969 40.613281 42.246094 42.652344 C 41.773438 45.898438 42.78125 48.328125 44.761719 50.109375 L 48.78125 30.449219 L 30.273438 27.539062 Z M 22.898438 37.585938 " fill-opacity="1" fill-rule="nonzero"/></g></g><g clip-path="url(#id6)"><g clip-path="url(#id7)"><path fill="rgb(23.139954%, 23.139954%, 23.139954%)" d="M 46.492188 59.511719 C 45 58.839844 43.996094 58.242188 43.753906 56.566406 C 43.621094 55.660156 44.167969 55.390625 44.734375 55.25 C 45.683594 55.011719 46.574219 55.386719 47.535156 56.03125 L 49.582031 57.554688 Z M 46.492188 59.511719 " fill-opacity="1" fill-rule="nonzero"/></g></g><g clip-path="url(#id8)"><path fill="rgb(23.139954%, 23.139954%, 23.139954%)" d="M 23.96875 30.539062 C 23.449219 29.113281 23.292969 27.6875 23.9375 26.199219 C 24.320312 25.324219 24.277344 24.429688 24.140625 23.546875 C 25.125 24.792969 25.726562 25.707031 26.339844 26.632812 C 26.632812 25.074219 27.136719 24.113281 27.699219 23.316406 C 27.554688 23.976562 27.753906 24.695312 27.929688 25.410156 C 28.292969 24.519531 28.953125 23.882812 29.765625 23.425781 C 31.042969 22.699219 31.300781 21.84375 31.140625 20.574219 C 31.859375 21.003906 32.117188 21.476562 32.296875 22.121094 C 34.011719 22.109375 34.792969 21.527344 35.332031 20.78125 C 36.3125 19.429688 37.207031 18.503906 38.226562 18.1875 C 38.867188 17.992188 39.273438 17.601562 39.554688 16.996094 C 40.019531 18.65625 40.210938 20.371094 39.585938 21.976562 C 39.222656 22.90625 39.039062 23.617188 38.890625 24.421875 C 39.640625 24.09375 40.078125 23.5 40.566406 22.964844 C 40.09375 23.925781 39.699219 24.710938 39.203125 25.304688 C 38.152344 26.5625 38.125 27.824219 38.628906 29.082031 C 40.546875 26.691406 44.3125 23.210938 47.503906 23.089844 C 48.796875 23.039062 49.867188 22.609375 50.894531 21.800781 C 50.191406 23.40625 49.148438 24.691406 47.710938 25.441406 C 46.347656 26.148438 46.160156 26.605469 46.121094 27.21875 C 46.699219 26.847656 47.296875 26.53125 48.214844 26.269531 C 47.066406 27.023438 46.847656 27.496094 46.613281 28.207031 L 47.796875 27.800781 C 46.714844 28.945312 45.929688 30.34375 45.222656 31.820312 C 45.679688 31.746094 46.097656 31.558594 46.496094 31.324219 C 46.078125 32.292969 45.0625 33.78125 44.054688 34.648438 L 38.558594 31.050781 L 30.707031 31.832031 L 22.996094 38.257812 C 22.1875 37.277344 20.296875 36.566406 18.191406 35.910156 C 19.089844 34.957031 20.320312 34.636719 21.707031 34.613281 C 20.554688 33.507812 20.367188 32.742188 20.113281 31.957031 C 20.710938 32.871094 21.238281 33.316406 21.730469 33.519531 C 20.820312 31.425781 20.40625 29.648438 20.257812 28.042969 C 21.066406 29.609375 22.394531 30.285156 23.96875 30.539062 Z M 23.96875 30.539062 " fill-opacity="1" fill-rule="nonzero"/></g><path fill="rgb(23.139954%, 25.489807%, 26.269531%)" d="M 65.824219 48.300781 C 65.582031 47.769531 65.308594 47.414062 65.003906 47.230469 C 64.699219 47.046875 64.347656 46.953125 63.941406 46.953125 L 60.691406 46.953125 L 60.691406 55.699219 L 57.777344 55.699219 L 57.777344 34.292969 L 63.910156 34.292969 C 65.125 34.292969 66.1875 34.46875 67.097656 34.816406 C 68.011719 35.140625 68.757812 35.601562 69.347656 36.191406 C 69.953125 36.761719 70.410156 37.433594 70.714844 38.210938 C 71.015625 38.984375 71.167969 39.820312 71.167969 40.714844 C 71.167969 42.042969 70.855469 43.195312 70.226562 44.171875 C 69.621094 45.152344 68.699219 45.882812 67.464844 46.375 C 67.746094 46.578125 67.96875 46.8125 68.132812 47.078125 C 68.3125 47.320312 68.464844 47.566406 68.585938 47.8125 L 72.382812 55.699219 L 69.195312 55.699219 Z M 60.691406 36.679688 L 60.691406 44.570312 L 63.910156 44.570312 C 64.78125 44.570312 65.5 44.457031 66.066406 44.234375 C 66.632812 43.988281 67.078125 43.683594 67.402344 43.316406 C 67.746094 42.949219 67.992188 42.53125 68.132812 42.0625 C 68.273438 41.59375 68.34375 41.113281 68.34375 40.625 C 68.34375 40.15625 68.273438 39.6875 68.132812 39.21875 C 67.992188 38.75 67.746094 38.332031 67.402344 37.964844 C 67.078125 37.578125 66.632812 37.269531 66.066406 37.046875 C 65.5 36.800781 64.78125 36.679688 63.910156 36.679688 Z M 60.691406 36.679688 " fill-opacity="1" fill-rule="nonzero"/><path fill="rgb(23.139954%, 25.489807%, 26.269531%)" d="M 79.128906 47.597656 C 79.128906 46.191406 79.3125 44.957031 79.675781 43.898438 C 80.0625 42.816406 80.578125 41.917969 81.226562 41.207031 C 81.875 40.472656 82.644531 39.929688 83.535156 39.585938 C 84.445312 39.21875 85.417969 39.035156 86.449219 39.035156 C 87.480469 39.035156 88.441406 39.21875 89.332031 39.585938 C 90.246094 39.929688 91.023438 40.472656 91.671875 41.207031 C 92.339844 41.917969 92.855469 42.816406 93.21875 43.898438 C 93.605469 44.957031 93.796875 46.191406 93.796875 47.597656 C 93.796875 49.003906 93.605469 50.246094 93.21875 51.328125 C 92.855469 52.386719 92.339844 53.285156 91.671875 54.019531 C 91.023438 54.730469 90.246094 55.273438 89.332031 55.640625 C 88.441406 55.984375 87.480469 56.160156 86.449219 56.160156 C 85.417969 56.160156 84.445312 55.984375 83.535156 55.640625 C 82.644531 55.273438 81.875 54.730469 81.226562 54.019531 C 80.578125 53.285156 80.0625 52.386719 79.675781 51.328125 C 79.3125 50.246094 79.128906 49.003906 79.128906 47.597656 Z M 82.167969 47.597656 C 82.167969 49.695312 82.5625 51.257812 83.351562 52.277344 C 84.160156 53.273438 85.195312 53.773438 86.449219 53.773438 C 87.722656 53.773438 88.757812 53.273438 89.546875 52.277344 C 90.355469 51.257812 90.761719 49.695312 90.761719 47.597656 C 90.761719 45.496094 90.355469 43.949219 89.546875 42.949219 C 88.757812 41.929688 87.722656 41.417969 86.449219 41.417969 C 85.195312 41.417969 84.160156 41.929688 83.351562 42.949219 C 82.5625 43.949219 82.167969 45.496094 82.167969 47.597656 Z M 82.167969 47.597656 " fill-opacity="1" fill-rule="nonzero"/><path fill="rgb(23.139954%, 25.489807%, 26.269531%)" d="M 107.765625 41.421875 C 106.066406 41.421875 104.960938 42.265625 104.457031 43.957031 L 101.9375 43.101562 C 102.746094 40.390625 104.6875 39.035156 107.765625 39.035156 C 109.890625 39.035156 111.421875 39.574219 112.351562 40.65625 C 113.304688 41.714844 113.777344 43.460938 113.777344 45.886719 L 113.777344 53.101562 C 113.777344 53.429688 113.851562 53.652344 113.992188 53.773438 C 114.152344 53.875 114.347656 53.925781 114.570312 53.925781 C 114.730469 53.925781 114.902344 53.90625 115.085938 53.867188 C 115.265625 53.804688 115.4375 53.734375 115.601562 53.652344 L 116.085938 55.546875 C 115.761719 55.710938 115.410156 55.855469 115.023438 55.976562 C 114.640625 56.097656 114.214844 56.160156 113.75 56.160156 C 113.019531 56.160156 112.402344 55.988281 111.894531 55.640625 C 111.410156 55.273438 111.117188 54.582031 111.015625 53.5625 C 110.710938 53.886719 110.367188 54.214844 109.984375 54.539062 C 109.597656 54.84375 109.171875 55.121094 108.707031 55.363281 C 108.261719 55.609375 107.777344 55.804688 107.25 55.945312 C 106.746094 56.089844 106.207031 56.160156 105.640625 56.160156 C 105.035156 56.160156 104.457031 56.039062 103.910156 55.792969 C 103.382812 55.570312 102.929688 55.253906 102.542969 54.84375 C 102.160156 54.4375 101.855469 53.957031 101.632812 53.40625 C 101.410156 52.835938 101.296875 52.226562 101.296875 51.574219 C 101.296875 49.902344 101.855469 48.597656 102.96875 47.660156 C 104.101562 46.722656 105.660156 46.253906 107.644531 46.253906 C 108.191406 46.253906 108.738281 46.292969 109.285156 46.375 C 109.832031 46.457031 110.359375 46.578125 110.863281 46.742188 L 110.863281 44.816406 C 110.863281 43.753906 110.589844 42.929688 110.042969 42.335938 C 109.496094 41.726562 108.738281 41.421875 107.765625 41.421875 Z M 106.519531 53.773438 C 107.289062 53.773438 108.039062 53.589844 108.769531 53.222656 C 109.519531 52.835938 110.214844 52.316406 110.863281 51.664062 L 110.863281 48.699219 C 110.4375 48.554688 109.984375 48.445312 109.496094 48.363281 C 109.011719 48.28125 108.535156 48.238281 108.070312 48.238281 C 107.5625 48.238281 107.078125 48.289062 106.613281 48.390625 C 106.148438 48.496094 105.730469 48.667969 105.367188 48.914062 C 105.023438 49.15625 104.738281 49.484375 104.515625 49.890625 C 104.316406 50.277344 104.214844 50.757812 104.214844 51.328125 C 104.214844 52 104.425781 52.582031 104.851562 53.070312 C 105.277344 53.539062 105.832031 53.773438 106.519531 53.773438 Z M 106.519531 53.773438 " fill-opacity="1" fill-rule="nonzero"/><path fill="rgb(23.139954%, 25.489807%, 26.269531%)" d="M 130.582031 55.699219 L 126.753906 55.699219 L 121.59375 39.492188 L 124.597656 39.492188 L 128.820312 52.980469 L 133.042969 39.492188 L 135.742188 39.492188 Z M 130.582031 55.699219 " fill-opacity="1" fill-rule="nonzero"/><g clip-path="url(#id9)"><path fill="rgb(23.139954%, 25.489807%, 26.269531%)" d="M 150.140625 53.773438 C 151.171875 53.773438 152.0625 53.578125 152.8125 53.191406 C 153.582031 52.785156 154.199219 52.355469 154.664062 51.90625 L 155.96875 53.5 C 155.34375 54.210938 154.523438 54.832031 153.511719 55.363281 C 152.496094 55.894531 151.34375 56.160156 150.046875 56.160156 C 148.976562 56.160156 147.984375 55.984375 147.074219 55.640625 C 146.160156 55.273438 145.371094 54.730469 144.703125 54.019531 C 144.054688 53.285156 143.539062 52.386719 143.15625 51.328125 C 142.789062 50.246094 142.609375 49.003906 142.609375 47.597656 C 142.609375 46.191406 142.789062 44.957031 143.15625 43.894531 C 143.519531 42.816406 144.027344 41.917969 144.671875 41.207031 C 145.320312 40.472656 146.082031 39.929688 146.949219 39.585938 C 147.839844 39.21875 148.804688 39.035156 149.835938 39.035156 C 150.789062 39.035156 151.65625 39.1875 152.449219 39.492188 C 153.257812 39.777344 153.945312 40.226562 154.511719 40.839844 C 155.078125 41.449219 155.515625 42.214844 155.816406 43.132812 C 156.140625 44.027344 156.304688 45.089844 156.304688 46.3125 L 156.304688 48.453125 L 145.675781 48.453125 C 145.796875 50.265625 146.261719 51.613281 147.074219 52.488281 C 147.902344 53.34375 148.925781 53.773438 150.140625 53.773438 Z M 149.867188 41.417969 C 148.773438 41.417969 147.839844 41.828125 147.070312 42.640625 C 146.324219 43.4375 145.867188 44.660156 145.707031 46.3125 L 153.417969 46.3125 C 153.417969 44.742188 153.105469 43.539062 152.476562 42.703125 C 151.871094 41.847656 151 41.417969 149.867188 41.417969 Z M 149.867188 41.417969 " fill-opacity="1" fill-rule="nonzero"/></g></svg>