<svg xmlns="http://www.w3.org/2000/svg" xmlns:xlink="http://www.w3.org/1999/xlink" width="220" zoomAndPan="magnify" viewBox="0 0 165 82.499998" height="110" preserveAspectRatio="xMidYMid meet" version="1.0"><defs><filter x="0%" y="0%" width="100%" height="100%" id="855321c946"><feColorMatrix values="0 0 0 0 1 0 0 0 0 1 0 0 0 0 1 0 0 0 1 0" color-interpolation-filters="sRGB"/></filter><clipPath id="189f3b0ca1"><path d="M 0.496094 0 L 164.503906 0 L 164.503906 82.003906 L 0.496094 82.003906 Z M 0.496094 0 " clip-rule="nonzero"/></clipPath><clipPath id="0466af510c"><path d="M 70 50 L 140 50 L 140 57.699219 L 70 57.699219 Z M 70 50 " clip-rule="nonzero"/></clipPath><mask id="89161ea97f"><g filter="url(#855321c946)"><rect x="-16.5" width="198" fill="#000000" y="-8.25" height="98.999997" fill-opacity="0.5"/></g></mask><clipPath id="e1bd2a151e"><path d="M 0.394531 2 L 5 2 L 5 7.253906 L 0.394531 7.253906 Z M 0.394531 2 " clip-rule="nonzero"/></clipPath><clipPath id="f676a9461f"><path d="M 7 2 L 12 2 L 12 7.253906 L 7 7.253906 Z M 7 2 " clip-rule="nonzero"/></clipPath><clipPath id="e1881cdc65"><path d="M 14 0.8125 L 17 0.8125 L 17 7 L 14 7 Z M 14 0.8125 " clip-rule="nonzero"/></clipPath><clipPath id="f5bd4384a8"><path d="M 16 2 L 21 2 L 21 7.253906 L 16 7.253906 Z M 16 2 " clip-rule="nonzero"/></clipPath><clipPath id="9a081af840"><path d="M 20 2 L 25 2 L 25 7.253906 L 20 7.253906 Z M 20 2 " clip-rule="nonzero"/></clipPath><clipPath id="93f14bc19b"><path d="M 29 0.8125 L 34 0.8125 L 34 7 L 29 7 Z M 29 0.8125 " clip-rule="nonzero"/></clipPath><clipPath id="c3212374ba"><path d="M 34 2 L 39 2 L 39 7.253906 L 34 7.253906 Z M 34 2 " clip-rule="nonzero"/></clipPath><clipPath id="3f0b3445ab"><path d="M 51 2 L 56 2 L 56 7.253906 L 51 7.253906 Z M 51 2 " clip-rule="nonzero"/></clipPath><clipPath id="3e87e7abe6"><path d="M 61 2 L 67 2 L 67 7.253906 L 61 7.253906 Z M 61 2 " clip-rule="nonzero"/></clipPath><clipPath id="c50a0c1ed7"><path d="M 66 2 L 69.335938 2 L 69.335938 7 L 66 7 Z M 66 2 " clip-rule="nonzero"/></clipPath><clipPath id="a9ee8792ac"><rect x="0" width="70" y="0" height="8"/></clipPath><clipPath id="38434f03ab"><path d="M 143 35 L 156.300781 35 L 156.300781 51 L 143 51 Z M 143 35 " clip-rule="nonzero"/></clipPath><clipPath id="175ef440ad"><path d="M 34 24.152344 L 45 24.152344 L 45 53 L 34 53 Z M 34 24.152344 " clip-rule="nonzero"/></clipPath><clipPath id="c12a41df03"><path d="M 21 29 L 36 29 L 36 57.699219 L 21 57.699219 Z M 21 29 " clip-rule="nonzero"/></clipPath><clipPath id="0d4779817a"><path d="M 8.699219 35 L 32 35 L 32 57.699219 L 8.699219 57.699219 Z M 8.699219 35 " clip-rule="nonzero"/></clipPath></defs><g clip-path="url(#189f3b0ca1)"><path fill="#ffffff" d="M 0.496094 0 L 164.503906 0 L 164.503906 82.003906 L 0.496094 82.003906 Z M 0.496094 0 " fill-opacity="1" fill-rule="nonzero"/></g><g clip-path="url(#0466af510c)"><g mask="url(#89161ea97f)"><g transform="matrix(1, 0, 0, 1, 70, 50)"><g clip-path="url(#a9ee8792ac)"><g clip-path="url(#e1bd2a151e)"><path fill="#000000" d="M 0.621094 5.992188 L 1.28125 5.652344 C 1.375 6.054688 1.730469 6.328125 2.261719 6.328125 C 2.761719 6.328125 3.117188 6.128906 3.183594 5.765625 C 3.347656 4.859375 0.859375 5.3125 1.148438 3.71875 C 1.207031 3.371094 1.390625 3.089844 1.6875 2.875 C 1.992188 2.652344 2.347656 2.542969 2.753906 2.542969 C 3.472656 2.542969 3.964844 2.839844 4.226562 3.429688 L 3.574219 3.769531 C 3.464844 3.410156 3.175781 3.234375 2.71875 3.234375 C 2.324219 3.234375 1.949219 3.421875 1.882812 3.796875 C 1.824219 4.136719 2.160156 4.324219 2.601562 4.460938 C 3.253906 4.640625 4.082031 4.902344 3.914062 5.847656 C 3.777344 6.597656 3.125 7.023438 2.203125 7.023438 C 1.367188 7.023438 0.824219 6.632812 0.621094 5.992188 Z M 0.621094 5.992188 " fill-opacity="1" fill-rule="nonzero"/></g><path fill="#000000" d="M 6.050781 3.371094 L 5.644531 5.679688 C 5.519531 6.328125 5.941406 6.285156 6.679688 6.25 L 6.558594 6.914062 C 5.308594 7.085938 4.734375 6.710938 4.910156 5.679688 L 5.308594 3.371094 L 4.472656 3.371094 L 4.605469 2.652344 L 5.433594 2.652344 L 5.605469 1.683594 L 6.382812 1.460938 L 6.171875 2.652344 L 7.304688 2.652344 L 7.175781 3.371094 Z M 6.050781 3.371094 " fill-opacity="1" fill-rule="nonzero"/><g clip-path="url(#f676a9461f)"><path fill="#000000" d="M 7.539062 6.367188 C 7.160156 5.933594 7.035156 5.378906 7.152344 4.707031 C 7.269531 4.050781 7.582031 3.523438 8.082031 3.128906 C 8.582031 2.738281 9.140625 2.542969 9.757812 2.542969 C 10.375 2.542969 10.847656 2.765625 11.210938 3.199219 C 11.574219 3.632812 11.703125 4.1875 11.59375 4.84375 C 11.484375 5.515625 11.179688 6.046875 10.6875 6.4375 C 10.195312 6.828125 9.648438 7.023438 9.046875 7.023438 C 8.445312 7.023438 7.921875 6.804688 7.539062 6.367188 Z M 10.230469 5.890625 C 10.578125 5.617188 10.789062 5.242188 10.863281 4.765625 C 10.941406 4.308594 10.855469 3.941406 10.609375 3.675781 C 10.367188 3.402344 10.042969 3.265625 9.636719 3.265625 C 9.242188 3.277344 8.867188 3.410156 8.53125 3.675781 C 8.191406 3.941406 7.980469 4.316406 7.886719 4.785156 C 7.8125 5.261719 7.886719 5.636719 8.132812 5.910156 C 8.378906 6.171875 8.707031 6.308594 9.105469 6.300781 C 9.519531 6.300781 9.890625 6.164062 10.230469 5.890625 Z M 10.230469 5.890625 " fill-opacity="1" fill-rule="nonzero"/></g><path fill="#000000" d="M 13.265625 3.277344 C 13.621094 2.789062 14.105469 2.558594 14.714844 2.578125 L 14.578125 3.351562 C 14.214844 3.34375 13.882812 3.4375 13.589844 3.652344 C 13.292969 3.855469 13.105469 4.1875 13.03125 4.65625 L 13.03125 4.648438 L 12.632812 6.914062 L 11.898438 6.914062 L 12.640625 2.652344 L 13.378906 2.652344 Z M 13.265625 3.277344 " fill-opacity="1" fill-rule="nonzero"/><g clip-path="url(#e1881cdc65)"><path fill="#000000" d="M 14.46875 6.914062 L 15.210938 2.652344 L 15.949219 2.652344 L 15.203125 6.914062 Z M 15.3125 1.382812 C 15.355469 1.101562 15.59375 0.882812 15.890625 0.882812 C 16.160156 0.882812 16.347656 1.109375 16.304688 1.382812 C 16.246094 1.664062 16.015625 1.878906 15.71875 1.878906 C 15.449219 1.878906 15.273438 1.65625 15.3125 1.382812 Z M 15.3125 1.382812 " fill-opacity="1" fill-rule="nonzero"/></g><g clip-path="url(#f5bd4384a8)"><path fill="#000000" d="M 20.246094 3.207031 C 20.59375 3.640625 20.703125 4.171875 20.582031 4.792969 C 20.574219 4.886719 20.542969 4.996094 20.5 5.125 L 16.964844 5.125 C 16.964844 5.882812 17.472656 6.328125 18.25 6.328125 C 18.816406 6.328125 19.265625 6.113281 19.59375 5.695312 L 20.144531 6.097656 C 19.710938 6.683594 18.96875 7.023438 18.164062 7.023438 C 17.496094 7.023438 16.988281 6.804688 16.632812 6.351562 C 16.277344 5.898438 16.160156 5.355469 16.269531 4.699219 C 16.378906 4.078125 16.667969 3.566406 17.140625 3.15625 C 17.613281 2.746094 18.164062 2.542969 18.78125 2.542969 C 19.398438 2.542969 19.90625 2.765625 20.246094 3.207031 Z M 19.890625 4.46875 C 19.925781 3.660156 19.449219 3.242188 18.738281 3.242188 C 17.953125 3.242188 17.320312 3.710938 17.074219 4.46875 Z M 19.890625 4.46875 " fill-opacity="1" fill-rule="nonzero"/></g><g clip-path="url(#9a081af840)"><path fill="#000000" d="M 20.648438 5.992188 L 21.308594 5.652344 C 21.402344 6.054688 21.757812 6.328125 22.289062 6.328125 C 22.789062 6.328125 23.144531 6.128906 23.210938 5.765625 C 23.371094 4.859375 20.886719 5.3125 21.175781 3.71875 C 21.234375 3.371094 21.417969 3.089844 21.714844 2.875 C 22.019531 2.652344 22.375 2.542969 22.78125 2.542969 C 23.5 2.542969 23.992188 2.839844 24.253906 3.429688 L 23.601562 3.769531 C 23.492188 3.410156 23.203125 3.234375 22.746094 3.234375 C 22.347656 3.234375 21.976562 3.421875 21.910156 3.796875 C 21.851562 4.136719 22.1875 4.324219 22.628906 4.460938 C 23.28125 4.640625 24.109375 4.902344 23.941406 5.847656 C 23.804688 6.597656 23.152344 7.023438 22.230469 7.023438 C 21.394531 7.023438 20.851562 6.632812 20.648438 5.992188 Z M 20.648438 5.992188 " fill-opacity="1" fill-rule="nonzero"/></g><path fill="#000000" d="M 28.175781 3.371094 L 27.769531 5.679688 C 27.644531 6.328125 28.066406 6.285156 28.804688 6.25 L 28.683594 6.914062 C 27.433594 7.085938 26.859375 6.710938 27.035156 5.679688 L 27.433594 3.371094 L 26.597656 3.371094 L 26.730469 2.652344 L 27.558594 2.652344 L 27.730469 1.683594 L 28.507812 1.460938 L 28.296875 2.652344 L 29.429688 2.652344 L 29.300781 3.371094 Z M 28.175781 3.371094 " fill-opacity="1" fill-rule="nonzero"/><g clip-path="url(#93f14bc19b)"><path fill="#000000" d="M 33.296875 3.019531 C 33.558594 3.335938 33.644531 3.761719 33.550781 4.296875 L 33.09375 6.914062 L 32.359375 6.914062 L 32.804688 4.339844 C 32.933594 3.632812 32.628906 3.25 31.953125 3.25 C 31.234375 3.25 30.640625 3.703125 30.480469 4.65625 L 30.480469 4.648438 L 30.082031 6.914062 L 29.347656 6.914062 L 30.386719 0.949219 L 31.121094 0.949219 L 30.726562 3.214844 C 31.089844 2.765625 31.570312 2.542969 32.171875 2.542969 C 32.671875 2.542969 33.042969 2.703125 33.296875 3.019531 Z M 33.296875 3.019531 " fill-opacity="1" fill-rule="nonzero"/></g><g clip-path="url(#c3212374ba)"><path fill="#000000" d="M 38.160156 2.652344 L 38.894531 2.652344 L 38.152344 6.914062 L 37.414062 6.914062 L 37.527344 6.308594 C 37.085938 6.785156 36.519531 7.023438 35.832031 7.023438 C 35.234375 7.023438 34.75 6.792969 34.40625 6.328125 C 34.058594 5.859375 33.949219 5.3125 34.058594 4.691406 C 34.167969 4.035156 34.457031 3.515625 34.910156 3.128906 C 35.367188 2.738281 35.882812 2.542969 36.460938 2.542969 C 37.160156 2.542969 37.730469 2.867188 38.023438 3.445312 Z M 37.527344 3.675781 C 37.273438 3.394531 36.933594 3.257812 36.511719 3.257812 C 36.113281 3.257812 35.742188 3.394531 35.410156 3.660156 C 35.082031 3.921875 34.871094 4.28125 34.792969 4.75 C 34.71875 5.183594 34.792969 5.558594 35.03125 5.859375 C 35.277344 6.15625 35.605469 6.308594 36.035156 6.308594 C 36.46875 6.308594 36.839844 6.171875 37.171875 5.890625 C 37.5 5.609375 37.703125 5.253906 37.78125 4.816406 C 37.871094 4.332031 37.789062 3.957031 37.527344 3.675781 Z M 37.527344 3.675781 " fill-opacity="1" fill-rule="nonzero"/></g><path fill="#000000" d="M 40.855469 3.371094 L 40.449219 5.679688 C 40.324219 6.328125 40.746094 6.285156 41.480469 6.25 L 41.363281 6.914062 C 40.113281 7.085938 39.535156 6.710938 39.714844 5.679688 L 40.113281 3.371094 L 39.273438 3.371094 L 39.410156 2.652344 L 40.238281 2.652344 L 40.40625 1.683594 L 41.1875 1.460938 L 40.976562 2.652344 L 42.109375 2.652344 L 41.980469 3.371094 Z M 40.855469 3.371094 " fill-opacity="1" fill-rule="nonzero"/><path fill="#000000" d="M 50.324219 3.011719 C 50.578125 3.328125 50.660156 3.746094 50.578125 4.265625 L 50.113281 6.914062 L 49.375 6.914062 L 49.832031 4.289062 C 49.941406 3.617188 49.65625 3.25 49.078125 3.25 C 48.460938 3.25 47.980469 3.660156 47.820312 4.519531 L 47.40625 6.914062 L 46.667969 6.914062 L 47.125 4.289062 C 47.234375 3.617188 46.964844 3.25 46.414062 3.25 C 45.796875 3.25 45.257812 3.667969 45.113281 4.519531 L 45.113281 4.511719 L 44.691406 6.914062 L 43.953125 6.914062 L 44.699219 2.652344 L 45.433594 2.652344 L 45.339844 3.164062 C 45.703125 2.746094 46.144531 2.542969 46.675781 2.542969 C 47.242188 2.542969 47.625 2.789062 47.8125 3.285156 C 48.191406 2.789062 48.683594 2.542969 49.265625 2.542969 C 49.714844 2.542969 50.070312 2.695312 50.324219 3.011719 Z M 50.324219 3.011719 " fill-opacity="1" fill-rule="nonzero"/><g clip-path="url(#3f0b3445ab)"><path fill="#000000" d="M 55.179688 2.652344 L 55.914062 2.652344 L 55.167969 6.914062 L 54.433594 6.914062 L 54.542969 6.308594 C 54.105469 6.785156 53.535156 7.023438 52.851562 7.023438 C 52.25 7.023438 51.769531 6.792969 51.421875 6.328125 C 51.074219 5.859375 50.964844 5.3125 51.074219 4.691406 C 51.183594 4.035156 51.472656 3.515625 51.929688 3.128906 C 52.386719 2.738281 52.902344 2.542969 53.476562 2.542969 C 54.179688 2.542969 54.746094 2.867188 55.042969 3.445312 Z M 54.542969 3.675781 C 54.289062 3.394531 53.953125 3.257812 53.527344 3.257812 C 53.128906 3.257812 52.757812 3.394531 52.429688 3.660156 C 52.097656 3.921875 51.886719 4.28125 51.8125 4.75 C 51.734375 5.183594 51.8125 5.558594 52.046875 5.859375 C 52.292969 6.15625 52.625 6.308594 53.054688 6.308594 C 53.484375 6.308594 53.859375 6.171875 54.1875 5.890625 C 54.519531 5.609375 54.722656 5.253906 54.796875 4.816406 C 54.890625 4.332031 54.804688 3.957031 54.542969 3.675781 Z M 54.542969 3.675781 " fill-opacity="1" fill-rule="nonzero"/></g><path fill="#000000" d="M 57.875 3.371094 L 57.46875 5.679688 C 57.339844 6.328125 57.765625 6.285156 58.5 6.25 L 58.382812 6.914062 C 57.128906 7.085938 56.554688 6.710938 56.730469 5.679688 L 57.128906 3.371094 L 56.292969 3.371094 L 56.425781 2.652344 L 57.257812 2.652344 L 57.425781 1.683594 L 58.203125 1.460938 L 57.992188 2.652344 L 59.125 2.652344 L 59 3.371094 Z M 57.875 3.371094 " fill-opacity="1" fill-rule="nonzero"/><path fill="#000000" d="M 60.625 3.371094 L 60.21875 5.679688 C 60.089844 6.328125 60.511719 6.285156 61.25 6.25 L 61.128906 6.914062 C 59.878906 7.085938 59.304688 6.710938 59.480469 5.679688 L 59.878906 3.371094 L 59.042969 3.371094 L 59.175781 2.652344 L 60.003906 2.652344 L 60.175781 1.683594 L 60.953125 1.460938 L 60.742188 2.652344 L 61.875 2.652344 L 61.75 3.371094 Z M 60.625 3.371094 " fill-opacity="1" fill-rule="nonzero"/><g clip-path="url(#3e87e7abe6)"><path fill="#000000" d="M 65.707031 3.207031 C 66.054688 3.640625 66.164062 4.171875 66.046875 4.792969 C 66.039062 4.886719 66.003906 4.996094 65.960938 5.125 L 62.425781 5.125 C 62.425781 5.882812 62.933594 6.328125 63.710938 6.328125 C 64.277344 6.328125 64.726562 6.113281 65.058594 5.695312 L 65.605469 6.097656 C 65.175781 6.683594 64.429688 7.023438 63.628906 7.023438 C 62.960938 7.023438 62.453125 6.804688 62.097656 6.351562 C 61.742188 5.898438 61.621094 5.355469 61.734375 4.699219 C 61.84375 4.078125 62.128906 3.566406 62.605469 3.15625 C 63.078125 2.746094 63.628906 2.542969 64.246094 2.542969 C 64.863281 2.542969 65.371094 2.765625 65.707031 3.207031 Z M 65.351562 4.46875 C 65.386719 3.660156 64.914062 3.242188 64.203125 3.242188 C 63.414062 3.242188 62.78125 3.710938 62.535156 4.46875 Z M 65.351562 4.46875 " fill-opacity="1" fill-rule="nonzero"/></g><g clip-path="url(#c50a0c1ed7)"><path fill="#000000" d="M 67.667969 3.277344 C 68.023438 2.789062 68.507812 2.558594 69.113281 2.578125 L 68.980469 3.351562 C 68.617188 3.34375 68.285156 3.4375 67.992188 3.652344 C 67.695312 3.855469 67.507812 4.1875 67.433594 4.65625 L 67.433594 4.648438 L 67.035156 6.914062 L 66.296875 6.914062 L 67.042969 2.652344 L 67.777344 2.652344 Z M 67.667969 3.277344 " fill-opacity="1" fill-rule="nonzero"/></g></g></g></g></g><path fill="#000000" d="M 66.34375 35.839844 L 69.78125 35.839844 L 66.34375 46.660156 L 63.335938 46.660156 L 61.617188 40.882812 L 59.898438 46.660156 L 56.894531 46.660156 L 53.457031 35.839844 L 56.894531 35.839844 L 58.4375 41.640625 L 60.113281 35.839844 L 63.121094 35.839844 L 64.796875 41.640625 Z M 66.34375 35.839844 " fill-opacity="1" fill-rule="nonzero"/><path fill="#000000" d="M 72.980469 42.546875 C 73.34375 43.5625 74.203125 44.0625 75.558594 44.0625 C 76.4375 44.0625 77.125 43.78125 77.621094 43.238281 L 80.199219 44.734375 C 79.144531 46.226562 77.578125 46.960938 75.515625 46.960938 C 73.710938 46.960938 72.273438 46.421875 71.175781 45.335938 C 70.101562 44.257812 69.566406 42.890625 69.566406 41.25 C 69.566406 39.605469 70.101562 38.261719 71.15625 37.179688 C 72.230469 36.078125 73.605469 35.535156 75.28125 35.535156 C 76.847656 35.535156 78.136719 36.078125 79.167969 37.179688 C 80.21875 38.261719 80.734375 39.625 80.734375 41.25 C 80.734375 41.703125 80.691406 42.136719 80.605469 42.546875 Z M 77.53125 40.125 C 77.210938 38.976562 76.460938 38.414062 75.253906 38.414062 C 74.050781 38.414062 73.238281 38.976562 72.914062 40.125 Z M 77.53125 40.125 " fill-opacity="1" fill-rule="nonzero"/><path fill="#000000" d="M 92.890625 31.511719 L 94.757812 31.511719 L 92.117188 46.65625 L 90.25 46.65625 L 90.527344 45.101562 C 89.390625 46.332031 87.949219 46.941406 86.210938 46.941406 C 84.6875 46.941406 83.460938 46.355469 82.582031 45.164062 C 81.699219 43.976562 81.421875 42.589844 81.699219 41.007812 C 81.980469 39.34375 82.710938 38.023438 83.871094 37.050781 C 85.03125 36.054688 86.339844 35.554688 87.800781 35.554688 C 89.585938 35.554688 91.066406 36.398438 91.777344 37.871094 L 92.894531 31.507812 Z M 90.507812 38.433594 C 89.863281 37.722656 89.003906 37.375 87.953125 37.375 C 86.898438 37.375 85.976562 37.722656 85.136719 38.390625 C 84.300781 39.0625 83.765625 39.972656 83.570312 41.164062 C 83.378906 42.265625 83.570312 43.21875 84.171875 43.976562 C 84.796875 44.734375 85.632812 45.125 86.726562 45.125 C 87.824219 45.125 88.789062 44.777344 89.628906 44.0625 C 90.464844 43.347656 90.980469 42.441406 91.171875 41.335938 C 91.386719 40.105469 91.171875 39.152344 90.507812 38.4375 Z M 90.507812 38.433594 " fill-opacity="1" fill-rule="nonzero"/><path fill="#000000" d="M 104.898438 37.246094 C 105.777344 38.347656 106.058594 39.691406 105.757812 41.269531 C 105.734375 41.507812 105.648438 41.789062 105.542969 42.113281 L 96.566406 42.113281 C 96.566406 44.039062 97.851562 45.164062 99.828125 45.164062 C 101.269531 45.164062 102.40625 44.625 103.246094 43.5625 L 104.640625 44.578125 C 103.546875 46.074219 101.65625 46.9375 99.617188 46.9375 C 97.917969 46.9375 96.628906 46.375 95.726562 45.230469 C 94.828125 44.082031 94.527344 42.699219 94.804688 41.03125 C 95.082031 39.453125 95.8125 38.152344 97.015625 37.113281 C 98.21875 36.078125 99.617188 35.558594 101.183594 35.558594 C 102.75 35.558594 104.039062 36.121094 104.898438 37.246094 Z M 103.996094 40.449219 C 104.082031 38.390625 102.878906 37.332031 101.074219 37.332031 C 99.078125 37.332031 97.464844 38.519531 96.84375 40.449219 Z M 103.996094 40.449219 " fill-opacity="1" fill-rule="nonzero"/><path fill="#000000" d="M 114.371094 35.839844 L 116.453125 35.839844 L 110.613281 46.660156 L 108.507812 46.660156 L 106.46875 35.839844 L 108.355469 35.839844 L 109.859375 44.515625 Z M 114.371094 35.839844 " fill-opacity="1" fill-rule="nonzero"/><path fill="#000000" d="M 125.648438 37.246094 C 126.527344 38.347656 126.808594 39.691406 126.507812 41.269531 C 126.484375 41.507812 126.398438 41.789062 126.292969 42.113281 L 117.3125 42.113281 C 117.3125 44.039062 118.601562 45.164062 120.578125 45.164062 C 122.019531 45.164062 123.15625 44.625 123.996094 43.5625 L 125.390625 44.578125 C 124.292969 46.074219 122.40625 46.9375 120.363281 46.9375 C 118.667969 46.9375 117.378906 46.375 116.476562 45.230469 C 115.574219 44.082031 115.273438 42.699219 115.554688 41.03125 C 115.832031 39.453125 116.5625 38.152344 117.765625 37.113281 C 118.96875 36.078125 120.363281 35.558594 121.933594 35.558594 C 123.5 35.558594 124.789062 36.121094 125.648438 37.246094 Z M 124.746094 40.449219 C 124.832031 38.390625 123.628906 37.332031 121.824219 37.332031 C 119.828125 37.332031 118.214844 38.519531 117.59375 40.449219 Z M 124.746094 40.449219 " fill-opacity="1" fill-rule="nonzero"/><path fill="#000000" d="M 127.195312 46.65625 L 128.332031 40.078125 L 129.945312 30.863281 L 131.8125 30.863281 L 129.0625 46.65625 Z M 127.195312 46.65625 " fill-opacity="1" fill-rule="nonzero"/><path fill="#000000" d="M 132.738281 45.273438 C 131.769531 44.167969 131.449219 42.761719 131.75 41.054688 C 132.050781 39.386719 132.84375 38.046875 134.109375 37.050781 C 135.378906 36.054688 136.796875 35.558594 138.363281 35.558594 C 139.933594 35.558594 141.136719 36.121094 142.058594 37.222656 C 142.984375 38.328125 143.304688 39.734375 143.023438 41.398438 C 142.746094 43.109375 141.972656 44.449219 140.726562 45.445312 C 139.480469 46.441406 138.085938 46.941406 136.558594 46.941406 C 135.035156 46.941406 133.703125 46.378906 132.738281 45.273438 Z M 139.566406 44.0625 C 140.445312 43.371094 140.984375 42.417969 141.179688 41.207031 C 141.371094 40.035156 141.15625 39.105469 140.535156 38.433594 C 139.910156 37.742188 139.09375 37.398438 138.0625 37.398438 C 137.054688 37.417969 136.109375 37.765625 135.25 38.433594 C 134.390625 39.105469 133.855469 40.058594 133.617188 41.25 C 133.421875 42.460938 133.617188 43.414062 134.238281 44.105469 C 134.863281 44.777344 135.699219 45.121094 136.710938 45.101562 C 137.761719 45.101562 138.707031 44.753906 139.566406 44.0625 Z M 139.566406 44.0625 " fill-opacity="1" fill-rule="nonzero"/><g clip-path="url(#38434f03ab)"><path fill="#000000" d="M 155.183594 37.332031 C 156.0625 38.5 156.382812 39.886719 156.105469 41.464844 C 155.828125 43.132812 155.097656 44.453125 153.9375 45.449219 C 152.796875 46.441406 151.488281 46.941406 150.027344 46.941406 C 148.246094 46.941406 146.742188 46.097656 146.035156 44.605469 L 144.917969 50.988281 L 143.046875 50.988281 L 145.691406 35.839844 L 147.558594 35.839844 L 147.277344 37.441406 C 148.394531 36.1875 149.835938 35.558594 151.574219 35.558594 C 153.097656 35.558594 154.300781 36.144531 155.183594 37.335938 Z M 153.613281 38.523438 C 153.011719 37.765625 152.175781 37.375 151.078125 37.375 C 149.984375 37.375 149.019531 37.722656 148.179688 38.433594 C 147.34375 39.148438 146.828125 40.035156 146.632812 41.140625 C 146.417969 42.371094 146.632812 43.347656 147.277344 44.0625 C 147.945312 44.773438 148.804688 45.121094 149.878906 45.121094 C 150.886719 45.121094 151.832031 44.796875 152.671875 44.125 C 153.507812 43.453125 154.046875 42.523438 154.238281 41.332031 C 154.429688 40.230469 154.214844 39.277344 153.613281 38.519531 Z M 153.613281 38.523438 " fill-opacity="1" fill-rule="nonzero"/></g><g clip-path="url(#175ef440ad)"><path fill="#ffbc00" d="M 34.980469 28.832031 L 34.980469 47.539062 C 34.980469 50.121094 37.058594 52.214844 39.621094 52.214844 C 42.1875 52.214844 44.265625 50.121094 44.265625 47.539062 L 44.265625 28.832031 C 44.265625 26.246094 42.1875 24.152344 39.621094 24.152344 C 37.058594 24.152344 34.980469 26.246094 34.980469 28.832031 Z M 34.980469 28.832031 " fill-opacity="1" fill-rule="nonzero"/></g><path fill="#ff8d21" d="M 41.941406 42.289062 C 41.300781 42.289062 40.71875 42.027344 40.296875 41.601562 L 38.65625 39.953125 L 29.773438 31.003906 C 27.960938 29.175781 25.019531 29.175781 23.207031 31.003906 C 21.394531 32.828125 21.394531 35.789062 23.207031 37.617188 L 36.339844 50.84375 C 38.152344 52.671875 41.09375 52.671875 42.90625 50.84375 C 43.355469 50.390625 43.695312 49.867188 43.921875 49.304688 C 43.921875 49.304688 43.921875 49.304688 43.921875 49.300781 C 43.949219 49.238281 43.964844 49.175781 43.988281 49.109375 C 44.015625 49.03125 44.046875 48.953125 44.070312 48.871094 C 44.089844 48.804688 44.101562 48.738281 44.117188 48.675781 C 44.140625 48.59375 44.160156 48.515625 44.179688 48.433594 C 44.191406 48.367188 44.199219 48.296875 44.207031 48.230469 C 44.21875 48.148438 44.234375 48.070312 44.242188 47.988281 C 44.25 47.917969 44.25 47.84375 44.253906 47.773438 C 44.257812 47.699219 44.261719 47.621094 44.261719 47.546875 L 44.261719 39.953125 C 44.261719 41.246094 43.222656 42.289062 41.941406 42.289062 Z M 41.941406 42.289062 " fill-opacity="1" fill-rule="nonzero"/><g clip-path="url(#c12a41df03)"><path fill="#ff5a42" d="M 31.816406 36.367188 C 31.359375 36.824219 31.132812 37.425781 31.136719 38.023438 L 31.132812 38.023438 L 31.132812 53.015625 C 31.132812 55.601562 29.054688 57.695312 26.492188 57.695312 C 23.929688 57.695312 21.851562 55.601562 21.851562 53.015625 L 21.851562 34.308594 C 21.851562 31.726562 23.929688 29.632812 26.492188 29.632812 C 27.128906 29.632812 27.738281 29.761719 28.289062 29.996094 C 28.289062 29.996094 28.292969 29.996094 28.296875 30 C 28.355469 30.027344 28.414062 30.058594 28.476562 30.085938 C 28.550781 30.121094 28.628906 30.15625 28.703125 30.195312 C 28.761719 30.226562 28.816406 30.265625 28.875 30.300781 C 28.945312 30.34375 29.015625 30.382812 29.085938 30.429688 C 29.140625 30.46875 29.195312 30.511719 29.25 30.554688 C 29.3125 30.601562 29.378906 30.648438 29.441406 30.699219 C 29.5 30.746094 29.550781 30.796875 29.601562 30.84375 C 29.660156 30.898438 29.71875 30.945312 29.769531 31 L 29.78125 31.007812 L 31.136719 32.375 L 35.101562 36.367188 C 34.195312 35.453125 32.726562 35.453125 31.816406 36.367188 Z M 31.816406 36.367188 " fill-opacity="1" fill-rule="nonzero"/></g><g clip-path="url(#0d4779817a)"><path fill="#ff1762" d="M 28.8125 47.769531 C 28.167969 47.769531 27.589844 47.507812 27.167969 47.082031 L 25.527344 45.433594 L 16.644531 36.480469 C 14.832031 34.65625 11.890625 34.65625 10.078125 36.480469 C 8.265625 38.308594 8.265625 41.269531 10.078125 43.097656 L 23.207031 56.324219 C 25.019531 58.148438 27.960938 58.148438 29.773438 56.324219 C 30.226562 55.871094 30.5625 55.34375 30.789062 54.785156 C 30.789062 54.785156 30.789062 54.78125 30.792969 54.78125 C 30.816406 54.71875 30.835938 54.652344 30.859375 54.589844 C 30.886719 54.511719 30.917969 54.429688 30.941406 54.351562 C 30.960938 54.285156 30.972656 54.21875 30.988281 54.152344 C 31.007812 54.074219 31.03125 53.992188 31.046875 53.914062 C 31.058594 53.847656 31.066406 53.777344 31.078125 53.710938 C 31.089844 53.628906 31.101562 53.546875 31.109375 53.46875 C 31.117188 53.394531 31.117188 53.324219 31.121094 53.253906 C 31.125 53.175781 31.132812 53.101562 31.132812 53.023438 L 31.132812 45.433594 C 31.132812 46.722656 30.09375 47.769531 28.8125 47.769531 Z M 28.8125 47.769531 " fill-opacity="1" fill-rule="nonzero"/></g></svg>